<svg width="43" height="43" viewBox="0 0 43 43" fill="none" xmlns="http://www.w3.org/2000/svg">
<circle cx="21.5" cy="21.5" r="21.5" fill="#E38578"/>
<path d="M8.58758 27.9966L8.09937 26.1054L12.9839 24.9489L13.4721 26.8401L8.58758 27.9966ZM22.6836 29.1641L20.4504 29.6929L18.146 20.7668C17.871 19.7014 17.6783 18.8507 17.5679 18.2147C17.4612 18.4004 17.3238 18.6102 17.1556 18.8441C16.9937 19.0764 16.4339 19.8243 15.4761 21.0879L13.991 19.9445L17.2522 15.781L19.1148 15.34L22.6836 29.1641ZM36.6623 25.8543L27.2449 28.0841L26.8104 26.401L29.4679 21.9691C30.2476 20.6406 30.7507 19.7121 30.9773 19.1836C31.2085 18.6472 31.3521 18.1617 31.408 17.727C31.4638 17.2924 31.4332 16.8482 31.316 16.3943C31.1549 15.7702 30.8379 15.3235 30.365 15.0542C29.8985 14.7834 29.3326 14.7267 28.6674 14.8842C28.1352 15.0102 27.6441 15.2302 27.1941 15.5441C26.7504 15.8565 26.2682 16.3453 25.7475 17.0104L24.1623 15.8305C24.7675 14.9982 25.3995 14.3603 26.0581 13.9168C26.7166 13.4732 27.4577 13.1539 28.2813 12.9589C29.5737 12.6529 30.6966 12.7449 31.6499 13.2349C32.6017 13.7186 33.224 14.5278 33.5169 15.6625C33.678 16.2865 33.717 16.9061 33.6337 17.5211C33.5568 18.1347 33.3613 18.7964 33.0471 19.5062C32.7376 20.2083 32.1722 21.195 31.3508 22.4664L29.5376 25.364L29.562 25.4585L36.157 23.897L36.6623 25.8543Z" fill="white"/>
</svg>
