<svg width="33" height="45" viewBox="0 0 33 45" fill="none" xmlns="http://www.w3.org/2000/svg">
<path d="M30.8992 6.69946C32.3951 10.8198 28.6977 17.3601 22.6183 21.2341C20.9785 22.2524 19.3345 22.9942 17.8223 23.4418C13.555 24.69 9.92749 23.7551 8.8313 20.6936C8.01249 18.3955 8.73401 15.3982 10.6174 12.4784C11.1227 11.7416 11.6413 10.9971 12.2923 10.3329C13.0243 9.46497 13.8579 8.6428 14.7917 7.87606C15.5561 7.25955 16.2923 6.66808 17.1122 6.15895C23.1917 2.28495 29.3757 2.52545 30.8992 6.69946Z" fill="#4CB07F"/>
<path d="M14.7917 7.87651C15.5592 10.3437 16.2827 12.7841 17.0323 15.2878C18.3699 17.5211 19.6531 19.7161 20.9907 21.9494C20.4823 22.2522 19.9722 22.5647 19.4638 22.8675C18.7439 23.2055 17.71 23.6902 16.4452 24.2562C13.6815 25.4888 12.8646 25.7521 8.6463 27.4513C3.7409 29.4347 1.46167 30.4393 0.512585 29.8639C0.390422 29.7951 0.309807 29.6936 0.245614 29.5651C-0.17754 28.7291 0.548029 26.9933 5.25057 20.072C7.20587 17.2326 9.01296 14.7143 10.6159 12.4884C11.195 11.7438 11.7578 11.026 12.2907 10.3429C13.0346 9.47688 13.8682 8.65473 14.7917 7.87651Z" fill="#4CB07F"/>
<path d="M22.5591 33.3452C22.3842 35.4939 19.3916 37.6613 15.8798 38.1486C14.9381 38.2681 14.051 38.2631 13.2832 38.1536C11.1195 37.8379 9.68887 36.677 9.82564 35.0836C9.93011 33.8883 10.8665 32.6958 12.3066 31.7759C12.6834 31.5499 13.0678 31.3232 13.4949 31.1596C14 30.9214 14.5411 30.7244 15.1156 30.5728C15.5837 30.4537 16.034 30.34 16.5049 30.2802C20.0166 29.7929 22.7326 31.1668 22.5591 33.3452Z" fill="#E38578"/>
<path d="M15.1154 30.573C14.9534 31.8334 14.7771 33.0727 14.5996 34.3458C14.7404 35.6183 14.8647 36.8626 15.0055 38.1351C14.7161 38.1664 14.424 38.2017 14.1347 38.233C13.7436 38.2367 13.182 38.2417 12.5005 38.2358C11.0124 38.221 10.5932 38.1714 8.35895 38.0674C5.75935 37.9497 4.53446 37.9322 4.22791 37.4806C4.18737 37.4248 4.17212 37.3629 4.16972 37.2923C4.15171 36.8318 4.83161 36.2042 8.3517 34.0724C9.80746 33.2032 11.1312 32.4471 12.3038 31.7801C12.7152 31.5657 13.1138 31.36 13.492 31.1637C14.002 30.9288 14.5431 30.7319 15.1154 30.573Z" fill="#E38578"/>
</svg>
