<svg width="143" height="114" viewBox="0 0 143 114" fill="none" xmlns="http://www.w3.org/2000/svg">
<path d="M36.3297 3.73809C41.8546 7.11519 43.6161 18.073 40.1699 28.149C39.2158 30.836 38.0019 33.2078 36.6691 35.1185C32.8941 40.493 27.8451 42.7579 23.7575 40.2346C20.6939 38.3368 18.7637 34.2119 18.2461 29.1053C18.15 27.7891 18.0623 26.4518 18.2015 25.0849C18.2463 23.4083 18.4507 21.6908 18.8217 19.945C19.1357 18.5286 19.4403 17.1672 19.9173 15.8237C23.3635 5.74768 30.7233 0.324571 36.3297 3.73809Z" fill="#E38578"/>
<path d="M18.8221 19.9454C21.9825 22.0856 25.0672 24.2356 28.2405 26.4346C31.8432 27.7793 35.3479 29.1301 38.9506 30.4748C38.6429 31.2931 38.3422 32.124 38.0344 32.9422C37.5151 33.996 36.7685 35.5086 35.8303 37.3279C33.7765 41.2983 33.0764 42.3553 29.7736 48.2054C25.9398 55.0167 24.235 58.2775 22.6091 58.4882C22.4047 58.5214 22.218 58.4785 22.0255 58.3894C20.7663 57.8145 20.0037 55.142 19.0514 42.8179C18.6909 37.738 18.4553 33.1652 18.2536 29.1182C18.2356 27.7248 18.2235 26.3776 18.209 25.0978C18.2692 23.4124 18.4736 21.695 18.8221 19.9454Z" fill="#E38578"/>
<path d="M131.783 27.5473C130.797 42.2025 112.611 61.1904 91.226 69.763C85.4907 72.002 80.0849 73.2852 75.393 73.7239C62.2134 74.8709 53.4578 69.2647 54.2244 58.4022C54.8111 50.2595 60.503 40.8584 69.2418 32.5368C71.555 30.4494 73.8522 28.3696 76.4814 26.621C79.5504 24.2744 82.8358 22.1379 86.3291 20.2352C89.1662 18.7202 91.9067 17.2899 94.7819 16.1864C116.174 7.62971 132.758 12.7023 131.783 27.5473Z" fill="#3D8D66"/>
<path d="M86.3362 20.2513C85.3979 28.9308 84.3438 37.4892 83.3248 46.2458C84.2272 54.5248 85.0215 62.6987 85.9239 70.9777C84.1642 71.6327 82.381 72.2793 80.6214 72.9343C78.2228 73.5591 74.8081 74.4294 70.6806 75.4019C61.6234 77.55 59.0431 77.8312 45.4492 80.54C29.5871 83.6949 22.1424 85.4136 20.2417 82.8757C20.0121 82.5547 19.8867 82.165 19.8814 81.6991C19.7613 78.633 23.8903 73.4048 45.263 53.8494C54.113 45.8461 62.1525 38.772 69.2648 32.5454C71.7669 30.486 74.1797 28.5272 76.5044 26.6296C79.5575 24.2905 82.8429 22.154 86.3362 20.2513Z" fill="#3D8D66"/>
<path d="M62.7327 107.697C59.77 110.351 52.6538 110.593 46.8872 108.21C45.352 107.56 44.0614 106.786 43.069 105.984C40.2972 103.714 39.6601 100.971 41.8629 99.0107C43.5165 97.5432 46.3977 96.7972 49.6655 96.8366C50.5086 96.8694 51.3472 96.9007 52.1876 97.0589C53.2263 97.1844 54.2672 97.3916 55.3042 97.6833C56.1407 97.9262 56.9424 98.1672 57.7084 98.497C63.4735 100.884 65.729 105.003 62.7327 107.697Z" fill="#F5E5A3"/>
<path d="M62.7327 107.697C59.77 110.351 52.6538 110.593 46.8872 108.21C45.352 107.56 44.0614 106.786 43.069 105.984C40.2972 103.714 39.6601 100.971 41.8629 99.0107C43.5165 97.5432 46.3977 96.7972 49.6655 96.8366C50.5086 96.8694 51.3472 96.9007 52.1876 97.0589C53.2263 97.1844 54.2672 97.3916 55.3042 97.6833C56.1407 97.9262 56.9424 98.1672 57.7084 98.497C63.4735 100.884 65.729 105.003 62.7327 107.697Z" fill="black" fill-opacity="0.05"/>
<path d="M55.3026 97.6878C53.4793 99.1929 51.6565 100.653 49.8029 102.157C48.4122 103.933 47.0204 105.668 45.6297 107.443C45.1648 107.237 44.6968 107.025 44.2318 106.82C43.6487 106.487 42.8222 106.01 41.8382 105.418C39.6762 104.122 39.1228 103.688 35.9754 101.643C32.3039 99.2545 30.5358 98.1798 30.6473 97.3284C30.6635 97.2227 30.7128 97.1235 30.7999 97.0322C31.3565 96.4151 33.1456 96.1824 40.9868 96.4334C44.2159 96.5556 47.1121 96.7047 49.6683 96.8427C50.5428 96.9166 51.381 96.9932 52.1905 97.065C53.2247 97.1889 54.2655 97.3961 55.3026 97.6878Z" fill="#F5E5A3"/>
<path d="M55.3026 97.6878C53.4793 99.1929 51.6565 100.653 49.8029 102.157C48.4122 103.933 47.0204 105.668 45.6297 107.443C45.1648 107.237 44.6968 107.025 44.2318 106.82C43.6487 106.487 42.8222 106.01 41.8382 105.418C39.6762 104.122 39.1228 103.688 35.9754 101.643C32.3039 99.2545 30.5358 98.1798 30.6473 97.3284C30.6635 97.2227 30.7128 97.1235 30.7999 97.0322C31.3565 96.4151 33.1456 96.1824 40.9868 96.4334C44.2159 96.5556 47.1121 96.7047 49.6683 96.8427C50.5428 96.9166 51.381 96.9932 52.1905 97.065C53.2247 97.1889 54.2655 97.3961 55.3026 97.6878Z" fill="black" fill-opacity="0.05"/>
</svg>
