<svg width="134" height="127" viewBox="0 0 134 127" fill="none" xmlns="http://www.w3.org/2000/svg">
<path d="M54.2465 4.13253C59.1069 8.41111 58.9539 19.5085 53.8231 28.84C52.4202 31.3224 50.8159 33.4496 49.1737 35.1021C44.5291 39.7457 39.1654 41.1068 35.5737 37.9169C32.883 35.5196 31.6923 31.1238 32.0623 26.0044C32.1946 24.6914 32.3386 23.3589 32.7112 22.0365C33.0443 20.3926 33.5415 18.736 34.2077 17.0802C34.7611 15.7392 35.2957 14.4506 35.9972 13.2094C41.128 3.87789 49.3121 -0.195957 54.2465 4.13253Z" fill="#4CB07F"/>
<path d="M54.2465 4.13253C59.1069 8.41111 58.9539 19.5085 53.8231 28.84C52.4202 31.3224 50.8159 33.4496 49.1737 35.1021C44.5291 39.7457 39.1654 41.1068 35.5737 37.9169C32.883 35.5196 31.6923 31.1238 32.0623 26.0044C32.1946 24.6914 32.3386 23.3589 32.7112 22.0365C33.0443 20.3926 33.5415 18.736 34.2077 17.0802C34.7611 15.7392 35.2957 14.4506 35.9972 13.2094C41.128 3.87789 49.3121 -0.195957 54.2465 4.13253Z" fill="black" fill-opacity="0.2"/>
<path d="M34.2081 17.0807C36.9523 19.7334 39.6205 22.3828 42.3674 25.0957C45.6845 27.0411 48.904 28.9755 52.2212 30.9209C51.777 31.674 51.3377 32.4406 50.8936 33.1936C50.2004 34.1421 49.2043 35.5034 47.9667 37.1339C45.2595 40.6909 44.3877 41.6115 40.1264 46.805C35.1762 52.8539 32.9351 55.7721 31.2971 55.6996C31.0901 55.6971 30.9136 55.6226 30.7393 55.5017C29.598 54.7184 29.3073 51.9545 30.4928 39.6506C31.013 34.5845 31.5688 30.0396 32.0675 26.0184C32.2899 24.6427 32.5101 23.3135 32.7163 22.0504C33.066 20.4006 33.5633 18.744 34.2081 17.0807Z" fill="#4CB07F"/>
<path d="M34.2081 17.0807C36.9523 19.7334 39.6205 22.3828 42.3674 25.0957C45.6845 27.0411 48.904 28.9755 52.2212 30.9209C51.777 31.674 51.3377 32.4406 50.8936 33.1936C50.2004 34.1421 49.2043 35.5034 47.9667 37.1339C45.2595 40.6909 44.3877 41.6115 40.1264 46.805C35.1762 52.8539 32.9351 55.7721 31.2971 55.6996C31.0901 55.6971 30.9136 55.6226 30.7393 55.5017C29.598 54.7184 29.3073 51.9545 30.4928 39.6506C31.013 34.5845 31.5688 30.0396 32.0675 26.0184C32.2899 24.6427 32.5101 23.3135 32.7163 22.0504C33.066 20.4006 33.5633 18.744 34.2081 17.0807Z" fill="black" fill-opacity="0.2"/>
<path d="M120.209 28.2436C120.99 42.9112 105.217 63.9462 85.0168 75.0257C79.592 77.9374 74.3796 79.8607 69.7744 80.8599C56.828 83.5818 47.4623 79.068 46.9185 68.192C46.5228 60.0378 51.0441 50.0211 58.72 40.71C60.7656 38.3598 62.7963 36.0191 65.1964 33.9673C67.9614 31.269 70.9664 28.7534 74.2058 26.4447C76.8403 24.5999 79.3891 22.8508 82.1109 21.4099C102.321 10.3453 119.394 13.389 120.209 28.2436Z" fill="#E38578"/>
<path d="M74.2147 26.4599C74.3258 35.1893 74.3075 43.8124 74.3478 52.628C76.2382 60.7386 78.0086 68.7579 79.899 76.8685C78.2308 77.7302 76.5382 78.5863 74.8699 79.448C72.5638 80.3564 69.2784 81.6305 65.2976 83.0919C56.564 86.3125 54.0362 86.9016 40.8662 91.2238C25.4979 96.2613 18.3136 98.8619 16.1218 96.5707C15.8553 96.2796 15.684 95.9078 15.6228 95.4459C15.1351 92.4164 18.6062 86.7301 37.475 64.7488C45.2995 55.7404 52.431 47.7517 58.7438 40.7158C60.9803 38.3707 63.1404 36.1363 65.2203 33.9731C67.9703 31.2842 70.9753 28.7686 74.2147 26.4599Z" fill="#E38578"/>
<path d="M97.0276 106.623C93.7771 113.264 81.6514 118.521 70.0284 118.304C66.936 118.218 64.1467 117.759 61.8717 117.039C55.4975 114.993 52.4846 110.646 54.9101 105.744C56.7292 102.068 61.1968 98.8153 66.8614 96.6412C68.3409 96.1136 69.8134 95.6141 71.3563 95.3119C73.2444 94.8268 75.1888 94.4754 77.1824 94.2862C78.8026 94.1531 80.3665 94.0059 81.9092 94.0629C93.5322 94.2796 100.327 99.9041 97.0276 106.623Z" fill="#F5E5A3"/>
<path d="M77.1827 94.2863C75.0817 98.1315 72.9667 101.913 70.8234 105.808C69.6592 109.858 68.4881 113.816 67.3309 117.838C66.38 117.809 65.436 117.753 64.4851 117.724C63.2454 117.533 61.4844 117.272 59.3572 116.918C54.7013 116.141 53.4476 115.768 46.5871 114.348C38.5855 112.703 34.7748 112.018 34.3529 110.475C34.3107 110.285 34.3319 110.081 34.4165 109.863C34.9315 108.405 37.8838 106.779 51.5943 101.889C57.2447 99.8914 62.3456 98.175 66.8828 96.6766C68.4398 96.1983 69.9545 95.7693 71.3777 95.3473C73.2447 94.8269 75.1891 94.4756 77.1827 94.2863Z" fill="#F5E5A3"/>
</svg>
