<svg width="194" height="190" viewBox="0 0 194 190" fill="none" xmlns="http://www.w3.org/2000/svg">
<path d="M131.67 119.465C131.552 114.159 137.101 106.427 144.032 102.265C145.884 101.175 147.672 100.427 149.237 100.031C153.629 98.9388 156.742 100.512 156.813 104.438C156.867 107.382 155.226 111.044 152.547 114.482C151.835 115.355 151.119 116.208 150.301 116.965C149.334 117.963 148.294 118.899 147.174 119.752C146.258 120.434 145.38 121.103 144.451 121.638C137.52 125.801 131.782 124.837 131.67 119.465Z" fill="#4CB07F"/>
<path d="M147.174 119.752C147.236 116.599 147.325 113.48 147.396 110.28C146.841 107.347 146.318 104.468 145.768 101.555C146.338 101.221 146.913 100.907 147.483 100.573C148.274 100.233 149.394 99.7433 150.759 99.1752C153.747 97.9342 154.602 97.7019 159.089 96.0427C164.32 94.1014 166.78 93.116 167.503 93.9136C167.586 94.0155 167.636 94.1496 167.653 94.3158C167.796 95.4072 166.551 97.5034 159.954 105.594C157.23 108.917 154.744 111.864 152.524 114.467C151.751 115.338 150.988 116.163 150.277 116.95C149.334 117.962 148.294 118.898 147.174 119.752Z" fill="#4CB07F"/>
<path d="M88.3325 42.0651C91.5057 37.7969 100.184 35.6887 107.652 37.3873C109.634 37.8593 111.36 38.5551 112.712 39.3668C116.496 41.6622 117.737 45.1399 115.378 48.2866C113.609 50.6467 110.198 52.3546 106.19 53.1402C105.149 53.317 104.118 53.4747 103.073 53.4834C101.776 53.5758 100.464 53.566 99.1461 53.4349C98.0787 53.3136 97.0453 53.2099 96.0587 52.9644C88.5909 51.2658 85.1148 46.3816 88.3325 42.0651Z" fill="#F5E5A3"/>
<path d="M99.1458 53.4342C101.124 50.9921 103.102 48.5967 105.116 46.1253C106.523 43.4137 107.92 40.7679 109.317 38.0753C109.927 38.222 110.527 38.3876 111.136 38.5343C111.905 38.8342 113 39.2533 114.316 39.7861C117.196 40.9551 117.944 41.3864 122.143 43.3028C127.042 45.5309 129.391 46.5224 129.414 47.6705C129.41 47.8107 129.364 47.9524 129.274 48.0957C128.705 49.0591 126.536 49.8173 116.894 51.4551C112.923 52.1179 109.353 52.6546 106.182 53.1118C105.099 53.2433 104.052 53.3456 103.065 53.4551C101.775 53.5752 100.463 53.5653 99.1458 53.4342Z" fill="#F5E5A3"/>
<path d="M26.8394 125.993C39.5469 137.334 69.9293 136.301 94.4912 123.581C101.03 120.119 106.521 116.165 110.74 112.168C122.52 100.868 125.177 88.0348 115.729 79.6617C108.637 73.3963 96.3204 70.8268 82.3723 71.9944C78.7739 72.3999 75.1947 72.7969 71.6111 73.7798C67.1799 74.6715 62.7414 75.9403 58.3213 77.598C54.7562 78.9697 51.3394 80.3223 48.0769 82.0735C23.5217 94.8141 13.9873 114.483 26.8394 125.993Z" fill="#E38578"/>
<path d="M26.8394 125.993C39.5469 137.334 69.9293 136.301 94.4912 123.581C101.03 120.119 106.521 116.165 110.74 112.168C122.52 100.868 125.177 88.0348 115.729 79.6617C108.637 73.3963 96.3204 70.8268 82.3723 71.9944C78.7739 72.3999 75.1947 72.7969 71.6111 73.7798C67.1799 74.6715 62.7414 75.9403 58.3213 77.598C54.7562 78.9697 51.3394 80.3223 48.0769 82.0735C23.5217 94.8141 13.9873 114.483 26.8394 125.993Z" fill="black" fill-opacity="0.05"/>
<path d="M58.3279 77.6172C66.1453 84.0045 73.9598 90.183 81.9062 96.5598C87.8832 104.324 93.864 111.9 99.841 119.665C101.821 118.576 103.814 117.458 105.794 116.369C108.276 114.661 111.793 112.213 115.98 109.187C125.179 102.56 127.532 100.395 140.921 90.0163C156.539 77.9014 164.062 72.4145 163.567 68.5237C163.495 68.0416 163.282 67.599 162.908 67.2043C160.518 64.5278 152.876 63.9952 119.41 67.5172C105.628 69.0545 93.2684 70.615 82.3596 72.0221C78.6284 72.6267 75.0523 73.2326 71.5984 73.8075C67.1866 74.6908 62.748 75.9596 58.3279 77.6172Z" fill="#E38578"/>
<path d="M58.3279 77.6172C66.1453 84.0045 73.9598 90.183 81.9062 96.5598C87.8832 104.324 93.864 111.9 99.841 119.665C101.821 118.576 103.814 117.458 105.794 116.369C108.276 114.661 111.793 112.213 115.98 109.187C125.179 102.56 127.532 100.395 140.921 90.0163C156.539 77.9014 164.062 72.4145 163.567 68.5237C163.495 68.0416 163.282 67.599 162.908 67.2043C160.518 64.5278 152.876 63.9952 119.41 67.5172C105.628 69.0545 93.2684 70.615 82.3596 72.0221C78.6284 72.6267 75.0523 73.2326 71.5984 73.8075C67.1866 74.6908 62.748 75.9596 58.3279 77.6172Z" fill="black" fill-opacity="0.05"/>
</svg>
