<svg width="49" height="30" viewBox="0 0 49 30" fill="none" xmlns="http://www.w3.org/2000/svg">
<path d="M25.3703 5.45678C20.1735 7.05499 4.53871 10.0757 5.10632 17.6947C5.45729 22.4057 12.9943 22.2168 16.3621 22.1167C21.8639 21.9531 27.3161 21.1223 32.5837 19.6201C35.2848 18.8499 39.656 17.7746 40.8426 15.0187C43.3175 9.27084 37.5584 5.30336 32.3398 4.36352C29.0122 3.76425 25.7974 4.15194 22.6347 5.24466C18.7317 6.59317 8.54113 14.6366 15.5955 18.0537C22.0703 21.19 48.7336 15.5692 39.3442 5.65259C35.4027 1.48979 27.2768 2.34598 22.3037 3.95559C17.0281 5.66308 10.4428 9.34254 8.26003 14.4639C6.70664 18.1086 10.7935 20.974 13.8182 22.3614C18.9096 24.6968 26.6841 25.7052 32.061 23.6342C42.4798 19.6212 38.7286 5.52212 28.4891 4.26562C23.4442 3.64654 18.0469 5.00953 13.8008 7.61066C10.2353 9.7949 7.29725 15.2017 10.2115 18.8696C18.1012 28.7995 39.2994 26.3102 43.282 14.2355C44.8716 9.41589 41.9547 6.19926 37.5495 4.03718C31.4542 1.04554 23.9804 1.78828 17.5469 3.46609C13.4682 4.52978 8.06114 6.99784 7.37141 11.3963C6.25065 18.5434 14.3332 23.5095 20.6658 25.1027C26.9382 26.6808 35.4402 26.5067 40.2502 21.7414C43.7673 18.257 43.2606 12.8323 39.8669 9.50345C34.9713 4.7014 27.2826 2.616 20.387 2.42177C14.7784 2.2638 6.73146 2.76133 2.99804 7.41485C0.515213 10.5096 3.4472 15.9385 5.50707 18.5106C9.78196 23.8484 17.5516 27.0462 24.4642 27.6809C30.8619 28.2683 41.1413 27.7129 45.1986 22.0677C49.0358 16.7289 45.662 12.1594 40.8426 8.93236C35.7827 5.54426 30.5725 3.98436 24.3597 4.11878C20.1402 4.21006 13.9736 6.20221 12.0584 10.0582C6.8848 20.4751 24.4954 27.8971 33.1587 24.14C38.0227 22.0306 41.5895 15.2656 41.226 10.352C40.4505 -0.129216 19.9869 3.67451 14.3584 7.64329C11.3769 9.74561 11.5412 12.8789 14.4455 14.9861C18.876 18.2005 24.9171 17.8362 29.5171 15.084C30.3914 14.5609 37.0975 8.82589 32.5315 7.52908C29.5339 6.67772 24.7324 9.36382 22.3734 10.6783C20.4035 11.7759 12.7655 16.7881 17.9651 18.9185C21.9788 20.563 29.0789 16.8772 31.4163 13.9254C35.0526 9.33336 22.7509 10.3438 20.8575 11.2168C19.6106 11.7916 17.6534 13.4065 19.028 14.8881C20.4746 16.4474 23.7748 16.4546 25.6839 16.4546C26.6892 16.4546 35.8317 15.7088 32.6534 12.669C29.583 9.73245 20.0381 9.9354 18.6447 14.6271C17.474 18.5686 29.1965 15.8874 30.3883 15.4429C30.7855 15.2948 31.676 15.043 31.4163 14.725C31.0157 14.2343 30.1417 14.3448 29.4823 14.3334C27.9229 14.3064 26.3575 14.4094 24.8127 14.6108C23.1779 14.8239 21.5239 15.0552 19.9689 15.5735C18.5259 16.0544 16.3907 17.2532 19.2371 18.0211C21.9463 18.752 31.7112 19.0523 32.6883 15.2961C34.1485 9.68223 22.1866 10.326 19.6552 13.028C15.2357 17.7454 25.0919 20.88 28.6808 19.6691C30.7509 18.9706 33.057 17.1477 33.6988 15.084C34.4952 12.5235 31.1736 11.5472 29.2558 11.2005C26.0588 10.6224 13.0809 11.5366 15.4038 17.4989C17.1935 22.0924 25.3359 19.6058 27.0081 16.3567C27.4956 15.4095 28.601 12.3978 27.1301 11.5757C25.5675 10.7025 22.0522 11.9528 20.631 12.4732C15.124 14.4896 17.9768 18.0291 22.6521 18.4453C25.5831 18.7063 32.1795 16.8903 32.6709 13.4849C33.2671 9.35307 24.246 11.2264 22.565 12.0489C19.2934 13.6499 18.0296 17.4047 23.018 16.9767C24.8771 16.8173 35.1434 14.7186 31.939 11.3963C29.7347 9.1107 25.0704 9.49481 22.4082 10.7762C18.537 12.6395 21.8769 14.3189 24.6036 13.8438C26.5185 13.5102 30.5755 12.1159 30.2141 9.634C29.8419 7.07816 25.2784 7.73662 23.4885 7.80646" stroke="#F5E5A3" stroke-width="3" stroke-linecap="round"/>
</svg>
