<svg width="87" height="59" viewBox="0 0 87 59" fill="none" xmlns="http://www.w3.org/2000/svg">
<path d="M50.9605 15.4187C40.4007 14.9365 9.83625 10.752 5.73575 22.7221C3.20033 30.1235 17.0801 34.0784 23.2928 35.8217C33.4419 38.6694 43.9504 40.469 54.5748 41.138C60.0227 41.4811 68.7234 42.2981 72.7465 38.7521C81.137 31.3564 73.3033 22.0469 64.4146 17.6713C58.7468 14.8813 52.6195 13.664 46.112 13.5541C38.0813 13.4184 14.0646 19.98 24.6329 29.1772C34.333 37.6188 86.7736 44.0371 76.3262 23.5864C71.9406 15.0017 56.5364 11.7354 46.377 11.3965C35.5998 11.037 21.1034 12.9554 13.6682 19.5575C8.3768 24.256 13.9023 30.9389 18.4861 34.7636C26.2018 41.2014 39.7079 47.121 50.915 46.9817C72.6311 46.7118 75.2909 23.0403 57.4544 15.3534C48.6665 11.5662 37.8994 10.6113 28.3982 12.1979C20.4198 13.5302 11.4141 20.1436 14.259 27.3932C21.961 47.0198 62.3186 55.1494 77.7254 38.928C83.875 32.4533 80.7209 25.8922 74.1406 20.1057C65.0354 12.0991 50.8975 9.02655 38.0276 7.96965C29.8683 7.29959 18.3383 8.02899 14.1147 14.3664C7.25164 24.6642 18.6517 36.809 29.1327 42.811C39.5138 48.7559 55.1445 53.2768 67.1336 48.6984C75.8999 45.3507 78.6323 36.7703 74.684 29.7692C68.9884 19.6697 56.365 12.1516 43.9138 7.97193C33.7863 4.57229 18.768 0.80212 8.81875 5.81578C2.20221 9.15 3.89231 19.1025 5.91699 24.1953C10.1188 34.7646 22.1402 44.0293 34.3255 48.892C45.6031 53.3926 64.7339 58.3314 75.9427 51.9837C86.5433 45.9805 83.4678 37.0935 76.8494 29.4453C69.9007 21.4154 61.4455 16.0964 50.0185 12.8037C42.2579 10.5675 29.6629 10.1415 23.5689 14.9595C7.10652 27.9751 34.2367 49.2402 52.577 48.3732C62.874 47.8865 73.9427 39.5503 76.5919 31.8319C82.2426 15.3683 42.3392 9.66222 29.3936 12.5618C22.5361 14.0977 20.7237 18.9814 24.6026 23.8388C30.5198 31.2488 41.7883 34.0933 52.0372 32.4749C53.985 32.1673 70.0875 27.1737 62.6303 22.6198C57.7346 19.6301 47.1628 21.034 41.9722 21.7157C37.638 22.2849 20.3223 25.6485 28.3737 31.8338C34.5888 36.6084 50.0288 34.9703 56.2836 31.7727C66.0143 26.7984 42.8866 21.4168 38.8433 21.6855C36.1805 21.8624 31.5206 23.2298 33.03 26.2694C34.6185 29.4681 40.6354 31.3375 44.1189 32.4124C45.9532 32.9785 63.138 36.9859 59.3879 30.5481C55.7651 24.3289 38.212 19.2648 32.5066 25.6543C27.7135 31.0222 50.9106 33.5229 53.3849 33.5143C54.2094 33.5115 56.0041 33.6278 55.7446 32.9953C55.3443 32.0194 53.6753 31.6963 52.4796 31.3075C49.6525 30.3882 46.7266 29.6643 43.7722 29.1024C40.6456 28.5077 37.4716 27.9302 34.2849 27.8471C31.3276 27.77 26.6237 28.4008 31.2996 31.1777C35.7503 33.8208 53.3656 39.7784 57.6805 34.5848C64.1294 26.8227 41.8689 21.0718 35.4286 23.7781C24.1843 28.5031 40.0553 38.8461 47.4202 39.0152C51.6683 39.1128 57.1051 37.6238 59.6674 34.8295C62.8466 31.3626 57.4439 27.9995 54.1783 26.3893C48.7346 23.7053 24.4379 17.7958 24.6572 28.2209C24.8262 36.2527 41.3596 37.035 46.6011 33.0083C48.1291 31.8344 52.1764 27.8516 50.0466 25.7663C47.7841 23.5511 40.527 23.4837 37.583 23.4792C26.1754 23.4617 28.9947 30.4803 37.245 33.7494C42.417 35.7987 55.6774 36.736 58.8697 31.8054C62.7429 25.8231 45.0196 23.6082 41.3979 23.9195C34.349 24.5253 29.5118 29.5553 38.9026 31.7098C42.4022 32.5127 62.5496 35.0843 58.9424 28.1996C56.4609 23.4635 47.6912 21.4246 41.9698 21.885C33.6501 22.5544 38.6122 27.0031 43.9077 27.812C47.6266 28.38 55.9692 28.5323 56.9829 24.5336C58.0268 20.4159 49.2561 18.8532 45.9429 17.9521" stroke="white" stroke-width="7" stroke-linecap="round"/>
</svg>
