<svg width="1019" height="3511" viewBox="0 0 1019 3511" fill="none" xmlns="http://www.w3.org/2000/svg">
<path d="M221.318 1C187.402 37.9815 105.361 124.971 70.9983 170.584C47.4918 201.786 22.3712 236.717 63.1783 258.45C148.833 304.067 259.757 303.151 351.871 304.816C471.042 306.97 590.251 304.766 709.207 315.575C779.024 321.92 878.534 325.74 941.203 369.371C977.562 394.684 972.793 445.861 950.327 481.06C908.172 547.108 818.981 571.384 756.996 597.873C540.011 690.603 309.538 770.036 117.485 926.282C80.1086 956.689 21.3119 1008.67 21.0365 1069.74C20.7696 1128.92 87.522 1143.3 124.87 1148.12C313.035 1172.41 498.54 1111.14 686.181 1118.92C740.864 1121.19 930.889 1139.84 897.976 1253.41C884.11 1301.25 847.499 1327.75 810.868 1348.96C791.605 1360.12 722.448 1396.18 710.727 1351.52C692.726 1282.94 893.422 1279.56 920.784 1286.97C1023.14 1314.66 1039.2 1416.56 994.424 1517.52C922.586 1679.48 759.001 1705.42 626.227 1766.52C518.088 1816.27 415.235 1881.45 317.766 1955.57C218.689 2030.91 104.121 2112.89 41.0212 2234.79C10.5887 2293.58 -13.6928 2373.32 11.4786 2440.5C41.6457 2521.01 122.998 2561.9 190.907 2579.08C304.474 2607.82 432.466 2617.45 548.243 2610.34C664.669 2603.18 791.109 2553.49 887.549 2475.33C901.004 2464.43 1016.59 2347.22 956.844 2327.53C880.214 2302.26 799.179 2409.66 761.775 2472C668.784 2626.99 647 2847.26 620.579 3028.92C597.231 3189.43 586.789 3347.65 584.954 3510" stroke="black" stroke-opacity="0.25" stroke-width="2" stroke-linecap="round"/>
</svg>
