<svg width="907" height="3093" viewBox="0 0 907 3093" fill="none" xmlns="http://www.w3.org/2000/svg">
<path d="M182.4 1.2002C127.385 29.2226 42.0533 56.168 16.0001 118.889C2.88992 150.45 7.52356 194.61 43.0223 210.978C90.975 233.088 165.291 223.03 214.4 222.356C311.502 221.023 408.831 214.171 505.956 217.022C605.389 219.941 714.642 221.514 808.889 257.2C852.606 273.753 893.232 298.026 903.467 346.445C911.963 386.639 894.629 426.24 869.689 456.667C765.363 583.945 578.082 621.879 438.4 695.6" stroke="black" stroke-opacity="0.25" stroke-width="2" stroke-linecap="round"/>
<path d="M342.4 743.6C232.918 787.663 79.3641 829.712 18.489 943.422C-9.70669 996.09 3.49249 1030.57 61.1557 1045.64C145.359 1067.65 247.951 1045.03 332.089 1032.31C460.057 1012.97 590.007 986.139 720 988.222C770.685 989.035 854.917 1014.07 810.489 1078C787.406 1111.22 743.276 1133.34 704.533 1141.29C693.761 1143.5 643.213 1143.43 663.822 1119.6C701.23 1076.35 793.352 1080.47 837.333 1108.4C892.648 1143.53 807.408 1217.99 780.8 1246" stroke="black" stroke-opacity="0.25" stroke-width="2" stroke-linecap="round"/>
<path d="M720 1358C658.518 1416.69 597.254 1475.43 526.756 1523.33C481.063 1554.38 432.602 1577.03 382.933 1600.49C333.725 1623.73 286.616 1650.42 236.978 1673.02C184.804 1696.78 130.586 1715.83 81.7779 1746.44C35.9407 1775.2 -3.01333 1821.35 2.13332 1878.53C5.442 1915.29 31.1145 1947.79 55.4667 1973.47C92.6878 2012.72 127.213 2054.14 169.6 2087.6" stroke="black" stroke-opacity="0.25" stroke-width="2" stroke-linecap="round"/>
<path d="M168 2134.8C281.758 2199.53 392.587 2261.66 521.067 2291.6C591.764 2308.08 666.066 2317.77 738.311 2306.18C780.482 2299.41 888.405 2270.26 890.311 2214.98C891.512 2180.14 847.235 2153.07 815.645 2157.02C733.17 2167.33 673.745 2259.04 636.978 2324.49C584.31 2418.25 550.187 2526 535.822 2632.58C526.165 2704.23 529.383 2777.56 525.867 2849.64C521.928 2930.38 516.555 3010.82 513.6 3091.6" stroke="black" stroke-opacity="0.25" stroke-width="2" stroke-linecap="round"/>
</svg>
