<svg width="162" height="102" viewBox="0 0 162 102" fill="none" xmlns="http://www.w3.org/2000/svg">
<path d="M17.7348 32.0492C15.8951 49.2029 12.4922 67.5082 13.5855 84.8853C14.2301 95.1293 18.9662 84.325 19.9024 81.5655C24.3374 68.4925 26.5463 50.4155 20.8179 37.3184C17.288 29.2479 13.7024 57.2111 13.6522 58.3004C13.3775 64.2581 13.2116 70.4781 14.352 76.3747C14.4719 76.995 17.2912 88.9425 19.945 86.6127C23.3548 83.6192 23.6944 72.7024 24.1825 69.2447C25.4648 60.1597 27.1709 50.3379 24.9041 41.2524C24.1891 38.3864 22.5025 32.366 18.4491 32.1066C12.5762 31.7307 10.4735 44.7376 9.81212 47.9267C8.14447 55.9678 7.05124 64.6908 8.08335 72.8959C8.80821 78.6586 11.7239 91.432 18.5986 93.3236C25.417 95.1997 29.312 81.4101 30.3213 77.5079C33.2346 66.2444 34.7745 53.0783 32.3719 41.5756C31.6233 37.9919 29.619 32.6309 25.7434 31.0775C19.2702 28.483 14.7071 38.4946 13.1433 42.8076C10.504 50.087 10.279 57.8948 10.8378 65.5239C11.429 73.5952 12.1311 86.9956 18.0313 93.4329C22.7836 98.6178 27.5562 87.7839 28.6532 85.3322C35.1777 70.7504 39.5695 52.8417 39.1787 36.7688C39.0976 33.4324 38.378 29.5697 34.6862 28.6655C28.9214 27.2535 25.9821 34.2859 24.4793 38.4863C21.4021 47.0868 20.2559 56.4214 20.2342 65.5208C20.2195 71.6588 19.7278 89.0567 26.6985 93.0062C39.6098 100.322 40.5668 48.2975 40.2275 43.7495C40.2148 43.58 40.0506 29.8591 36.895 29.3959C32.6165 28.7679 29.5549 43.1678 29.2006 45.0484C27.2821 55.2321 28.183 66.4839 32.6947 75.9122C35.2116 81.1717 40.7547 87.6584 43.6582 78.6398C47.1182 67.8925 47.2251 55.5798 46.7075 44.4579C46.364 37.0769 45.7576 19.2419 39.6743 23.4361C35.3948 26.3867 33.6417 34.8768 32.8322 39.3562C30.571 51.868 32.3387 64.785 36.5244 76.7064C37.1001 78.3463 39.0967 85.135 42.3688 82.2306C49.4996 75.901 48.4516 59.457 48.5157 51.2784C48.5832 42.6643 48.7592 32.4246 45.509 24.1923C43.1238 18.151 39.65 19.9117 37.7976 25.0441C34.3076 34.7132 33.0374 45.3962 33.0916 55.6143C33.1378 64.3301 33.5212 80.2613 41.3973 86.4773C52.4363 95.1897 58.7622 43.6391 58.7484 37.8317C58.7434 35.72 59.2683 20.2674 54.729 19.5683C46.5914 18.315 44.0567 48.7229 43.8825 51.9515C43.4231 60.4626 42.7646 79.0336 50.7401 85.4192C53.0931 87.3031 54.0812 84.4064 54.8476 82.6853C57.3068 77.162 59.0611 69.2793 60.2294 63.7389C62.8718 51.2071 65.1996 38.0925 64.9046 25.2191C64.8241 21.7057 63.7423 11.8927 58.0048 17.3427C43.709 30.9218 46.7261 58.0649 51.9579 74.7327C53.0209 78.1196 56.9057 85.4638 59.0753 82.6542C66.7132 72.7631 66.8528 53.68 67.7661 42.0622C68.4211 33.7302 69.6204 23.1743 66.6594 15.0071C65.6514 12.2267 64.4653 10.4436 62.6631 14.3598C59.8983 20.3677 57.934 32.5234 57.1005 37.8984C55.5084 48.1662 51.9489 64.2301 57.2513 74.3781C63.5491 86.4311 72.1216 66.821 73.3181 63.0037C75.2452 56.8553 79.0616 42.1814 71.0654 37.7535C60.4421 31.8709 63.8898 59.3432 64.5209 62.0871C65.4815 66.2635 68.1435 75.7103 73.4614 77.1953C81.8772 79.5452 88.6498 56.462 89.9728 52.2961C92.8155 43.3452 97.859 25.6359 91.2534 16.7941C84.1244 7.25194 73.8328 32.3689 72.905 35.2301C69.728 45.0277 70.1268 54.647 73.3174 64.3199C75.6912 71.5164 80.7584 80.4702 87.0197 70.4751C92.4208 61.8531 94.635 50.7907 94.6397 40.7363C94.6415 37.0352 93.5089 18.3331 84.8101 20.7232C79.1591 22.2758 76.8271 32.3694 75.6583 36.6181C72.475 48.1903 72.0688 59.6998 82.6552 67.6636C92.4455 75.0285 95.8367 65.5 97.4206 56.6549C99.3291 45.9978 103.507 19.4062 92.4596 11.4159C87.7616 8.01799 81.6279 12.6134 79.2023 16.2466C72.5921 26.1478 71.123 41.1818 74.2295 52.4807C75.6869 57.7816 79.989 66.1461 85.6219 68.4604C93.4304 71.6687 97.7625 48.4733 98.5307 45.1744C99.7998 39.724 104.374 23.3139 98.9832 18.2611C89.5351 9.40545 77.1489 46.5175 76.4306 50.6222C74.9741 58.9446 76.0775 69.7592 84.7474 73.7713C95.0033 78.5174 99.2745 64.9647 100.944 57.6126C103.798 45.0442 104.344 30.8881 101.389 18.2607C99.5012 10.194 94.1002 7.41332 89.3663 14.9503C85.9069 20.458 86.2392 28.4252 86.6736 34.4997C87.4186 44.9176 89.2062 61.4043 98.278 68.4979C108.998 76.8802 112.673 26.8642 111.638 20.931C111.365 19.3673 107.64 5.68045 103.479 13.6558C100.064 20.2011 99.8396 32.1014 99.703 38.4275C99.5247 46.685 99.8232 56.7713 101.667 65.0703C102.393 68.3375 105.075 74.7933 108.785 69.2699C113.992 61.5153 114.67 49.864 113.937 40.9255C113.425 34.6893 112.706 24.229 107.77 19.4479C102.123 13.9791 100.838 31.7046 100.833 32.761C100.792 41.2017 102.558 49.9825 106.305 57.5896C108.542 62.1319 113.75 67.5698 117.439 60.8065C123.231 50.1871 122.33 33.3433 120.87 21.9379C120.37 18.0265 115.388 -1.4053 109.82 11.7484C103.714 26.1768 106.635 48.3238 117.208 60.1686C121.059 64.482 124.13 59.0619 125.495 55.6687C129.827 44.8979 131.929 30.8614 129.849 19.3518C129.392 16.8202 127.212 10.2555 123.376 14.015C116.214 21.0328 115.244 35.4659 115.914 44.7399C116.481 52.5772 123.647 71.806 129.442 54.581C132.193 46.4042 133.37 36.3525 131.628 27.8456C130.187 20.8045 122.051 15.9893 120.25 25.8036C118.781 33.815 121.334 43.5491 123.33 51.2253C124.332 55.08 128.486 64.5974 130.199 61.0017C133.483 54.107 133.869 44.3582 134.352 37.0347C134.802 30.2186 137.156 13.388 129.358 8.8101C122.813 4.96794 121.92 19.7786 121.819 22.18C121.408 31.9504 122.298 47.4187 129.999 54.7418C139.209 63.5001 147.774 23.0663 140.27 15.0675C135.865 10.3726 130.57 17.5766 129.116 20.6977C125.013 29.5044 125.696 40.8205 129.041 49.7318C135.725 67.5356 146.082 47.667 146.73 38.1947C147.233 30.8442 146.882 22.3388 143.762 15.5194C140.351 8.0652 135.491 13.1689 133.344 18.2609C131.554 22.5046 124.129 59.9745 137.588 56.4518C142.895 55.0627 145.136 44.8663 146.109 40.9708C148.157 32.7747 150.997 19.2112 145.883 11.4203C143.679 8.06326 140.845 11.4004 139.757 13.5995C135.975 21.2443 136.236 31.8007 136.728 40.0239C136.813 41.4369 137.555 57.0307 142.526 55.8419C148.878 54.3226 152.641 35.2933 154.4 30.9795" stroke="white" stroke-width="14" stroke-linecap="round"/>
</svg>
