<svg width="100" height="65" viewBox="0 0 100 65" fill="none" xmlns="http://www.w3.org/2000/svg">
<path d="M57.9605 18.4187C47.4007 17.9365 16.8362 13.752 12.7358 25.7221C10.2003 33.1235 24.0801 37.0784 30.2928 38.8217C40.4419 41.6694 50.9504 43.469 61.5748 44.138C67.0227 44.4811 75.7234 45.2981 79.7465 41.7521C88.137 34.3564 80.3033 25.0469 71.4146 20.6713C65.7468 17.8813 59.6195 16.664 53.112 16.5541C45.0813 16.4184 21.0646 22.98 31.6329 32.1772C41.333 40.6188 93.7736 47.0371 83.3262 26.5864C78.9406 18.0017 63.5364 14.7354 53.377 14.3965C42.5998 14.037 28.1034 15.9554 20.6682 22.5575C15.3768 27.256 20.9023 33.9389 25.4861 37.7636C33.2018 44.2014 46.7079 50.121 57.915 49.9817C79.6311 49.7118 82.2909 26.0403 64.4544 18.3534C55.6665 14.5662 44.8994 13.6113 35.3982 15.1979C27.4198 16.5302 18.4141 23.1436 21.259 30.3932C28.961 50.0198 69.3186 58.1494 84.7254 41.928C90.875 35.4533 87.7209 28.8922 81.1406 23.1057C72.0354 15.0991 57.8975 12.0265 45.0276 10.9696C36.8683 10.2996 25.3383 11.029 21.1147 17.3664C14.2516 27.6642 25.6517 39.809 36.1327 45.811C46.5138 51.7559 62.1445 56.2768 74.1336 51.6984C82.8999 48.3507 85.6323 39.7703 81.684 32.7692C75.9884 22.6697 63.365 15.1516 50.9138 10.9719C40.7863 7.5723 25.768 3.80212 15.8187 8.81578C9.20221 12.15 10.8923 22.1025 12.917 27.1953C17.1188 37.7646 29.1402 47.0293 41.3255 51.892C52.6031 56.3926 71.7339 61.3314 82.9427 54.9837C93.5433 48.9805 90.4678 40.0935 83.8494 32.4453C76.9007 24.4154 68.4455 19.0964 57.0185 15.8037C49.2579 13.5675 36.6629 13.1415 30.5689 17.9595C14.1065 30.9751 41.2367 52.2402 59.577 51.3732C69.874 50.8865 80.9427 42.5503 83.5919 34.8319C89.2426 18.3683 49.3392 12.6622 36.3936 15.5618C29.5361 17.0977 27.7237 21.9814 31.6026 26.8388C37.5198 34.2488 48.7883 37.0933 59.0372 35.4749C60.985 35.1673 77.0875 30.1737 69.6303 25.6198C64.7346 22.6301 54.1628 24.034 48.9722 24.7157C44.638 25.2849 27.3223 28.6485 35.3737 34.8338C41.5888 39.6084 57.0288 37.9703 63.2836 34.7727C73.0143 29.7984 49.8866 24.4168 45.8433 24.6855C43.1805 24.8624 38.5206 26.2298 40.0301 29.2694C41.6185 32.4681 47.6354 34.3375 51.1189 35.4124C52.9532 35.9785 70.138 39.9859 66.3879 33.5481C62.7651 27.3289 45.212 22.2648 39.5066 28.6543C34.7135 34.0222 57.9106 36.5229 60.3849 36.5143C61.2094 36.5115 63.0041 36.6278 62.7446 35.9953C62.3443 35.0194 60.6753 34.6963 59.4796 34.3075C56.6525 33.3882 53.7266 32.6643 50.7722 32.1024C47.6456 31.5077 44.4716 30.9302 41.2849 30.8471C38.3276 30.77 33.6237 31.4008 38.2996 34.1777C42.7503 36.8208 60.3656 42.7784 64.6805 37.5848C71.1294 29.8227 48.8689 24.0718 42.4286 26.7781C31.1842 31.5031 47.0553 41.8461 54.4202 42.0152C58.6683 42.1128 64.1051 40.6238 66.6674 37.8295C69.8466 34.3626 64.4439 30.9995 61.1783 29.3893C55.7346 26.7053 31.4379 20.7958 31.6572 31.2209C31.8261 39.2527 48.3596 40.035 53.6011 36.0083C55.1291 34.8344 59.1764 30.8516 57.0466 28.7663C54.7841 26.5511 47.527 26.4837 44.583 26.4792C33.1754 26.4617 35.9947 33.4803 44.245 36.7494C49.417 38.7987 62.6774 39.736 65.8697 34.8054C69.7429 28.8231 52.0196 26.6082 48.3979 26.9195C41.349 27.5253 36.5118 32.5553 45.9026 34.7098C49.4022 35.5127 69.5496 38.0843 65.9424 31.1996C63.4609 26.4635 54.6912 24.4246 48.9698 24.885C40.6501 25.5544 45.6122 30.0031 50.9077 30.812C54.6266 31.38 62.9692 31.5323 63.9829 27.5336C65.0268 23.4159 56.2561 21.8532 52.9429 20.9521" stroke="white" stroke-width="10" stroke-linecap="round"/>
<path d="M32.3972 30.3218L37.5716 21.1395L48.5826 23.888L47.2665 26.9706L39.4536 25.0204L37.2586 28.9027C38.3854 28.665 39.4706 28.6763 40.5141 28.9368C42.3853 29.4039 43.6168 30.3199 44.2087 31.6849C44.8005 33.0499 44.6742 34.7216 43.8296 36.6999C43.3163 37.9022 42.5859 38.9136 41.6384 39.7339C40.7035 40.5479 39.624 41.0947 38.3997 41.3741C37.1791 41.645 35.8896 41.611 34.5312 41.2719C33.3438 40.9755 32.3382 40.4744 31.5146 39.7688C30.6947 39.0545 30.1644 38.2098 29.9238 37.2344C29.6922 36.2613 29.7842 35.2416 30.1996 34.1752L34.0588 35.1385C33.8085 35.9347 33.8334 36.6109 34.1335 37.167C34.4463 37.7169 34.9984 38.0906 35.7901 38.2882C36.6717 38.5083 37.4783 38.3794 38.2099 37.9015C38.9452 37.4151 39.5476 36.6218 40.0172 35.5218C40.4687 34.4644 40.5401 33.5858 40.2317 32.8861C39.9232 32.1863 39.2652 31.7107 38.2576 31.4592C37.3311 31.2279 36.4816 31.2706 35.7093 31.5874L35.1895 31.8256L32.3972 30.3218ZM64.203 41.0918L59.6825 39.9635C59.1923 41.2282 59.1409 42.258 59.5282 43.053C59.9245 43.8502 60.8198 44.4228 62.2142 44.7708C63.1588 45.0066 64.0698 45.0878 64.9473 45.0143L64.1116 48.231C62.8905 48.1998 61.6863 48.036 60.4988 47.7396C58.1329 47.1491 56.5139 46.0797 55.6418 44.5315C54.7824 42.9771 54.7754 41.1165 55.6209 38.9496L53.3404 38.3804L54.1705 36.4362L56.4509 37.0054L57.1281 35.4193L54.8476 34.8501L55.6776 32.9059L57.9851 33.4818C59.0554 31.3711 60.5543 29.9005 62.4817 29.07C64.4217 28.2332 66.5702 28.109 68.9271 28.6973C69.8717 28.9331 70.8767 29.3302 71.9424 29.8888L70.1296 32.8757C69.4005 32.3917 68.6266 32.0476 67.808 31.8433C65.2622 31.2078 63.3417 32.0919 62.0467 34.4957L66.5402 35.6173L65.7101 37.5615L61.1897 36.4332L60.5126 38.0192L65.033 39.1476L64.203 41.0918Z" fill="black"/>
</svg>
