<svg width="122" height="71" viewBox="0 0 122 71" fill="none" xmlns="http://www.w3.org/2000/svg">
<path d="M58.1557 18.4187C47.5959 17.9365 17.0314 13.752 12.9309 25.7221C10.3955 33.1235 24.2753 37.0784 30.488 38.8217C40.6371 41.6694 51.1456 43.469 61.77 44.138C67.2179 44.4811 75.9186 45.2981 79.9417 41.7521C88.3322 34.3564 80.4985 25.0469 71.6097 20.6713C65.942 17.8813 59.8147 16.664 53.3072 16.5541C45.2765 16.4184 21.2598 22.98 31.8281 32.1772C41.5282 40.6188 93.9688 47.0371 83.5214 26.5864C79.1358 18.0017 63.7316 14.7354 53.5722 14.3965C42.795 14.037 28.2986 15.9554 20.8634 22.5575C15.572 27.256 21.0974 33.9389 25.6813 37.7636C33.397 44.2014 46.903 50.121 58.1102 49.9817C79.8263 49.7118 82.4861 26.0403 64.6496 18.3534C55.8617 14.5662 45.0946 13.6113 35.5934 15.1979C27.615 16.5302 18.6093 23.1436 21.4542 30.3932C29.1562 50.0198 69.5138 58.1494 84.9206 41.928C91.0701 35.4533 87.9161 28.8922 81.3357 23.1057C72.2306 15.0991 58.0927 12.0265 45.2228 10.9696C37.0634 10.2996 25.5335 11.029 21.3099 17.3664C14.4468 27.6642 25.8469 39.809 36.3278 45.811C46.709 51.7559 62.3397 56.2768 74.3288 51.6984C83.0951 48.3507 85.8275 39.7703 81.8792 32.7692C76.1836 22.6697 63.5602 15.1516 51.109 10.9719C40.9815 7.57229 25.9632 3.80212 16.0139 8.81578C9.3974 12.15 11.0875 22.1025 13.1122 27.1953C17.314 37.7646 29.3354 47.0293 41.5207 51.892C52.7983 56.3926 71.9291 61.3314 83.1379 54.9837C93.7385 48.9805 90.663 40.0935 84.0446 32.4453C77.0959 24.4154 68.6407 19.0964 57.2137 15.8037C49.4531 13.5675 36.8581 13.1415 30.7641 17.9595C14.3017 30.9751 41.4319 52.2402 59.7722 51.3732C70.0692 50.8865 81.1379 42.5503 83.7871 34.8319C89.4378 18.3683 49.5344 12.6622 36.5888 15.5618C29.7313 17.0977 27.9189 21.9814 31.7978 26.8388C37.715 34.2488 48.9835 37.0933 59.2324 35.4749C61.1802 35.1673 77.2827 30.1737 69.8255 25.6198C64.9298 22.6301 54.358 24.034 49.1674 24.7157C44.8332 25.2849 27.5175 28.6485 35.5689 34.8338C41.784 39.6084 57.2239 37.9703 63.4788 34.7727C73.2094 29.7984 50.0818 24.4168 46.0384 24.6855C43.3757 24.8624 38.7158 26.2298 40.2252 29.2694C41.8137 32.4681 47.8306 34.3375 51.314 35.4124C53.1484 35.9785 70.3332 39.9859 66.5831 33.5481C62.9603 27.3289 45.4072 22.2648 39.7018 28.6543C34.9087 34.0222 58.1058 36.5229 60.5801 36.5143C61.4045 36.5115 63.1993 36.6278 62.9398 35.9953C62.5395 35.0194 60.8704 34.6963 59.6748 34.3075C56.8476 33.3882 53.9218 32.6643 50.9674 32.1024C47.8408 31.5077 44.6668 30.9302 41.48 30.8471C38.5228 30.77 33.8188 31.4008 38.4948 34.1777C42.9455 36.8208 60.5608 42.7784 64.8757 37.5848C71.3246 29.8227 49.0641 24.0718 42.6238 26.7781C31.3794 31.5031 47.2505 41.8461 54.6154 42.0152C58.8635 42.1128 64.3003 40.6238 66.8626 37.8295C70.0418 34.3626 64.6391 30.9995 61.3735 29.3893C55.9298 26.7053 31.6331 20.7958 31.8524 31.2209C32.0213 39.2527 48.5548 40.035 53.7963 36.0083C55.3243 34.8344 59.3716 30.8516 57.2418 28.7663C54.9793 26.5511 47.7222 26.4837 44.7781 26.4792C33.3706 26.4617 36.1899 33.4803 44.4401 36.7494C49.6122 38.7987 62.8726 39.736 66.0649 34.8054C69.9381 28.8231 52.2148 26.6082 48.5931 26.9195C41.5442 27.5253 36.707 32.5553 46.0978 34.7098C49.5974 35.5127 69.7448 38.0843 66.1376 31.1996C63.6561 26.4635 54.8864 24.4246 49.165 24.885C40.8453 25.5544 45.8073 30.0031 51.1029 30.812C54.8218 31.38 63.1644 31.5323 64.1781 27.5336C65.222 23.4159 56.4513 21.8532 53.1381 20.9521" stroke="white" stroke-width="10" stroke-linecap="round"/>
<path d="M33.6011 20.7163L17.9584 34.3211L13.9238 33.0113L29.1237 20.3023L19.5465 17.1932L21.0284 14.2957L34.6271 18.7104L33.6011 20.7163ZM29.1228 35.8953C29.4141 35.3257 29.8534 34.9293 30.4406 34.706C31.0367 34.4856 31.6434 34.4756 32.2607 34.676C32.8868 34.8793 33.3119 35.2242 33.536 35.7109C33.769 36.2004 33.7398 36.7299 33.4485 37.2995C33.1613 37.8608 32.7242 38.2531 32.137 38.4764C31.554 38.6914 30.945 38.6958 30.31 38.4897C29.6839 38.2864 29.2567 37.9456 29.0283 37.4672C28.8042 36.9806 28.8357 36.4566 29.1228 35.8953ZM40.8538 31.4161L46.6516 22.614L57.4458 26.1182L55.9195 29.1023L48.2604 26.6158L45.8018 30.3369C46.9424 30.1777 48.0242 30.2642 49.0471 30.5963C50.8815 31.1918 52.0466 32.1909 52.5426 33.5936C53.0385 34.9963 52.7967 36.6552 51.8172 38.5703C51.2219 39.7342 50.4232 40.6926 49.4212 41.4453C48.4322 42.1927 47.3174 42.6634 46.0767 42.8574C44.8403 43.0432 43.5562 42.9199 42.2246 42.4876C41.0605 42.1097 40.0921 41.5402 39.3193 40.7792C38.5508 40.0099 38.0803 39.1305 37.9078 38.1408C37.7441 37.154 37.9064 36.1431 38.3947 35.108L42.178 36.3362C41.8731 37.1132 41.8512 37.7894 42.112 38.365C42.386 38.9352 42.911 39.3463 43.687 39.5982C44.5513 39.8788 45.3649 39.806 46.1278 39.3799C46.895 38.9456 47.5509 38.196 48.0956 37.1311C48.6191 36.1075 48.7512 35.236 48.492 34.5165C48.2327 33.7971 47.6092 33.277 46.6215 32.9564C45.7131 32.6615 44.8628 32.6453 44.0704 32.9079L43.5353 33.1095L40.8538 31.4161ZM68.0831 41.9017C66.808 44.3946 65.2815 46.1225 63.5036 47.0854C61.7257 48.0483 59.7741 48.1848 57.6487 47.4948C55.5499 46.8135 54.2763 45.6444 53.828 43.9877C53.3797 42.331 53.7609 40.289 54.9715 37.8617L56.6688 34.5433C57.9566 32.0256 59.4896 30.295 61.2679 29.3514C63.055 28.4108 64.9979 28.2811 67.0968 28.9625C69.1957 29.6439 70.4693 30.8129 70.9176 32.4697C71.3701 34.1182 70.991 36.156 69.7804 38.5833L68.0831 41.9017ZM66.1221 37.0202C66.8863 35.5261 67.2211 34.369 67.1263 33.549C67.0447 32.7236 66.5408 32.1606 65.6148 31.8599C64.7153 31.5679 63.8827 31.6778 63.1171 32.1897C62.3644 32.6961 61.6223 33.6343 60.8908 35.0043L58.6488 39.3876C57.8972 40.8569 57.5495 42.0194 57.6054 42.875C57.6745 43.7252 58.1808 44.3035 59.1244 44.6098C60.0592 44.9133 60.909 44.7897 61.674 44.2391C62.4389 43.6885 63.1912 42.7103 63.9308 41.3045L66.1221 37.0202ZM87.394 49.4124L82.9626 47.9738C82.386 49.2016 82.2634 50.2254 82.5947 51.0452C82.9349 51.8679 83.7884 52.5012 85.1553 52.9449C86.0813 53.2455 86.9846 53.3896 87.865 53.377L86.8086 56.5281C85.5926 56.4125 84.4026 56.1657 83.2385 55.7878C80.9192 55.0349 79.3781 53.856 78.6153 52.2512C77.8656 50.641 77.9874 48.7843 78.9809 46.6812L76.7453 45.9554L77.708 44.0734L79.9435 44.7991L80.7288 43.2637L78.4933 42.538L79.4559 40.6559L81.718 41.3902C82.9319 39.3587 84.5289 37.9954 86.5092 37.3003C88.5025 36.5998 90.6544 36.6246 92.965 37.3747C93.8909 37.6753 94.8661 38.1411 95.8905 38.7721L93.8753 41.6263C93.1814 41.0931 92.4332 40.6962 91.6307 40.4356C89.135 39.6254 87.158 40.3745 85.6997 42.6828L90.1047 44.1129L89.142 45.995L84.7106 44.5563L83.9252 46.0917L88.3567 47.5303L87.394 49.4124Z" fill="black"/>
</svg>
