<svg width="100" height="65" viewBox="0 0 100 65" fill="none" xmlns="http://www.w3.org/2000/svg">
<path d="M57.9605 18.4187C47.4007 17.9365 16.8362 13.752 12.7358 25.7221C10.2003 33.1235 24.0801 37.0784 30.2928 38.8217C40.4419 41.6694 50.9504 43.469 61.5748 44.138C67.0227 44.4811 75.7234 45.2981 79.7465 41.7521C88.137 34.3564 80.3033 25.0469 71.4146 20.6713C65.7468 17.8813 59.6195 16.664 53.112 16.5541C45.0813 16.4184 21.0646 22.98 31.6329 32.1772C41.333 40.6188 93.7736 47.0371 83.3262 26.5864C78.9406 18.0017 63.5364 14.7354 53.377 14.3965C42.5998 14.037 28.1034 15.9554 20.6682 22.5575C15.3768 27.256 20.9023 33.9389 25.4861 37.7636C33.2018 44.2014 46.7079 50.121 57.915 49.9817C79.6311 49.7118 82.2909 26.0403 64.4544 18.3534C55.6665 14.5662 44.8994 13.6113 35.3982 15.1979C27.4198 16.5302 18.4141 23.1436 21.259 30.3932C28.961 50.0198 69.3186 58.1494 84.7254 41.928C90.875 35.4533 87.7209 28.8922 81.1406 23.1057C72.0354 15.0991 57.8975 12.0265 45.0276 10.9696C36.8683 10.2996 25.3383 11.029 21.1147 17.3664C14.2516 27.6642 25.6517 39.809 36.1327 45.811C46.5138 51.7559 62.1445 56.2768 74.1336 51.6984C82.8999 48.3507 85.6323 39.7703 81.684 32.7692C75.9884 22.6697 63.365 15.1516 50.9138 10.9719C40.7863 7.57229 25.768 3.80212 15.8187 8.81578C9.20221 12.15 10.8923 22.1025 12.917 27.1953C17.1188 37.7646 29.1402 47.0293 41.3255 51.892C52.6031 56.3926 71.7339 61.3314 82.9427 54.9837C93.5433 48.9805 90.4678 40.0935 83.8494 32.4453C76.9007 24.4154 68.4455 19.0964 57.0185 15.8037C49.2579 13.5675 36.6629 13.1415 30.5689 17.9595C14.1065 30.9751 41.2367 52.2402 59.577 51.3732C69.874 50.8865 80.9427 42.5503 83.5919 34.8319C89.2426 18.3683 49.3392 12.6622 36.3936 15.5618C29.5361 17.0977 27.7237 21.9814 31.6026 26.8388C37.5198 34.2488 48.7883 37.0933 59.0372 35.4749C60.985 35.1673 77.0875 30.1737 69.6303 25.6198C64.7346 22.6301 54.1628 24.034 48.9722 24.7157C44.638 25.2849 27.3223 28.6485 35.3737 34.8338C41.5888 39.6084 57.0288 37.9703 63.2836 34.7727C73.0143 29.7984 49.8866 24.4168 45.8433 24.6855C43.1805 24.8624 38.5206 26.2298 40.03 29.2694C41.6185 32.4681 47.6354 34.3375 51.1189 35.4124C52.9532 35.9785 70.138 39.9859 66.3879 33.5481C62.7651 27.3289 45.212 22.2648 39.5066 28.6543C34.7135 34.0222 57.9106 36.5229 60.3849 36.5143C61.2094 36.5115 63.0041 36.6278 62.7446 35.9953C62.3443 35.0194 60.6753 34.6963 59.4796 34.3075C56.6525 33.3882 53.7266 32.6643 50.7722 32.1024C47.6456 31.5077 44.4716 30.9302 41.2849 30.8471C38.3276 30.77 33.6237 31.4008 38.2996 34.1777C42.7503 36.8208 60.3656 42.7784 64.6805 37.5848C71.1294 29.8227 48.8689 24.0718 42.4286 26.7781C31.1843 31.5031 47.0553 41.8461 54.4202 42.0152C58.6683 42.1128 64.1051 40.6238 66.6674 37.8295C69.8466 34.3626 64.4439 30.9995 61.1783 29.3893C55.7346 26.7053 31.4379 20.7958 31.6572 31.2209C31.8262 39.2527 48.3596 40.035 53.6011 36.0083C55.1291 34.8344 59.1764 30.8516 57.0466 28.7663C54.7841 26.5511 47.527 26.4837 44.583 26.4792C33.1754 26.4617 35.9947 33.4803 44.245 36.7494C49.417 38.7987 62.6774 39.736 65.8697 34.8054C69.7429 28.8231 52.0196 26.6082 48.3979 26.9195C41.349 27.5253 36.5118 32.5553 45.9026 34.7098C49.4022 35.5127 69.5496 38.0843 65.9424 31.1996C63.4609 26.4635 54.6912 24.4246 48.9698 24.885C40.6501 25.5544 45.6122 30.0031 50.9077 30.812C54.6266 31.38 62.9692 31.5323 63.9829 27.5336C65.0268 23.4159 56.2561 21.8532 52.9429 20.9521" stroke="white" stroke-width="7" stroke-linecap="round"/>
<path d="M47.8139 22.142L46.242 25.055L45.8743 24.9266C44.1454 24.352 42.5378 24.2852 41.0515 24.7262C39.5739 25.1703 38.3426 26.0737 37.3575 27.4364C38.8925 26.8282 40.4347 26.7945 41.9841 27.3356C43.6473 27.9163 44.6697 28.9328 45.0512 30.3848C45.4328 31.8369 45.1349 33.4686 44.1574 35.2801C43.5321 36.4388 42.695 37.3926 41.6459 38.1414C40.6056 38.8933 39.4499 39.3577 38.179 39.5345C36.9168 39.7144 35.6642 39.5873 34.4212 39.1533C32.4079 38.4502 31.1319 37.2289 30.5934 35.4893C30.0637 33.7528 30.3866 31.7952 31.5622 29.6165L32.2491 28.3436C33.2926 26.4098 34.6024 24.8404 36.1784 23.6355C37.7676 22.4256 39.5111 21.6719 41.4089 21.3746C43.3198 21.0721 45.2447 21.2546 47.1836 21.9219L47.8139 22.142ZM39.2963 29.7717C38.6836 29.5577 38.0463 29.5146 37.3844 29.6423C36.727 29.7618 36.148 30.0251 35.6474 30.4321L35.0662 31.5092C34.4278 32.6924 34.1775 33.7056 34.3154 34.5489C34.4577 35.3841 34.9797 35.9591 35.8813 36.2739C36.6954 36.5582 37.5126 36.4896 38.333 36.0682C39.1665 35.6416 39.8409 34.951 40.356 33.9964C40.88 33.0253 41.0488 32.1534 40.8625 31.3804C40.6763 30.6075 40.1542 30.0712 39.2963 29.7717ZM63.7887 41.6115L59.39 40.0755C58.7865 41.2903 58.6414 42.3111 58.9546 43.1381C59.2765 43.9681 60.1159 44.62 61.4727 45.0938C62.3918 45.4147 63.2916 45.5786 64.1722 45.5855L63.0466 48.7125C61.8334 48.5701 60.6491 48.2972 59.4936 47.8937C57.1915 47.0898 55.6768 45.8773 54.9495 44.256C54.2355 42.6297 54.3982 40.7761 55.4378 38.6954L53.2187 37.9206L54.2227 36.0602L56.4417 36.835L57.2607 35.3173L55.0416 34.5425L56.0455 32.682L58.2908 33.4661C59.5492 31.4618 61.176 30.134 63.1711 29.4828C65.1793 28.8264 67.3301 28.8987 69.6236 29.6995C70.5427 30.0205 71.5074 30.5076 72.5176 31.161L70.44 33.9701C69.758 33.4217 69.0188 33.0084 68.2222 32.7303C65.745 31.8652 63.7519 32.5705 62.2431 34.8462L66.6155 36.3729L65.6116 38.2334L61.2129 36.6974L60.3939 38.2151L64.7926 39.7511L63.7887 41.6115Z" fill="black"/>
</svg>
