<svg width="263" height="165" viewBox="0 0 263 165" fill="none" xmlns="http://www.w3.org/2000/svg">
<path d="M195.754 140.909C194.127 142.524 190.092 142.815 186.766 141.538C185.883 141.189 185.131 140.763 184.55 140.316C182.929 139.042 182.507 137.452 183.72 136.26C184.626 135.365 186.249 134.871 188.107 134.827C188.583 134.828 189.063 134.827 189.542 134.905C190.135 134.956 190.729 135.055 191.325 135.205C191.803 135.329 192.266 135.455 192.708 135.632C196.032 136.905 197.399 139.271 195.754 140.909Z" fill="#F5E5A3"/>
<path d="M191.325 135.205C190.32 136.123 189.319 137.015 188.294 137.936C187.542 139.006 186.788 140.046 186.033 141.117C185.765 141.006 185.496 140.894 185.223 140.78C184.886 140.599 184.403 140.335 183.833 140.009C182.58 139.295 182.256 139.054 180.425 137.922C178.292 136.601 177.263 136.006 177.31 135.504C177.317 135.441 177.343 135.384 177.391 135.328C177.692 134.956 178.705 134.785 183.162 134.767C184.999 134.77 186.647 134.798 188.102 134.825C188.601 134.852 189.078 134.878 189.537 134.902C190.134 134.953 190.729 135.055 191.325 135.205Z" fill="#F5E5A3"/>
<path d="M250.747 91.2858C250.4 101.077 238.596 113.92 224.4 119.837C220.594 121.376 216.985 122.293 213.841 122.625C204.998 123.51 198.984 119.844 199.269 112.588C199.485 107.144 203.113 100.824 208.799 95.1851C210.304 93.7718 211.808 92.3585 213.536 91.1719C215.551 89.5705 217.711 88.1197 220.024 86.8206C221.898 85.7846 223.715 84.8057 225.62 84.0383C239.812 78.117 251.079 81.3626 250.747 91.2858Z" fill="#F5E5A3"/>
<path d="M219.713 86.8787C219.272 92.6813 218.756 98.4044 218.257 104.264C219.047 109.785 219.757 115.23 220.542 120.751C219.369 121.203 218.191 121.655 217.018 122.107C215.419 122.548 213.142 123.161 210.382 123.848C204.336 125.36 202.611 125.579 193.527 127.503C182.931 129.746 177.951 130.961 176.624 129.282C176.455 129.067 176.374 128.808 176.357 128.496C176.206 126.455 178.875 122.926 192.818 109.674C198.592 104.246 203.841 99.456 208.49 95.2352C210.129 93.841 211.708 92.5033 213.226 91.222C215.24 89.6246 217.404 88.1743 219.713 86.8787Z" fill="#F5E5A3"/>
<path d="M188.266 101.511C188.166 105.254 183.686 110.225 178.286 112.569C176.844 113.18 175.462 113.555 174.263 113.702C170.897 114.1 168.595 112.731 168.681 109.963C168.746 107.887 170.12 105.449 172.272 103.257C172.843 102.703 173.416 102.163 174.063 101.699C174.831 101.079 175.653 100.508 176.531 100.002C177.249 99.5997 177.939 99.203 178.661 98.9049C184.061 96.5607 188.374 97.7226 188.266 101.511Z" fill="#E38578"/>
<path d="M176.531 100.002C176.372 102.215 176.193 104.401 176.025 106.646C176.34 108.756 176.633 110.826 176.946 112.922C176.501 113.108 176.055 113.281 175.611 113.467C175 113.64 174.133 113.89 173.079 114.175C170.771 114.796 170.115 114.887 166.657 115.676C162.625 116.601 160.726 117.087 160.207 116.465C160.148 116.386 160.114 116.287 160.107 116.169C160.038 115.389 161.056 114.02 166.343 108.884C168.526 106.776 170.515 104.913 172.289 103.268C172.906 102.721 173.514 102.205 174.08 101.711C174.831 101.079 175.653 100.508 176.531 100.002Z" fill="#E38578"/>
<path d="M193.481 21.4734C199.607 32.0684 195.85 53.651 185.042 69.5161C182.115 73.7293 178.972 77.1284 175.931 79.6118C167.348 86.5284 158.687 86.7186 154.171 78.8491C150.793 72.9444 150.362 63.7975 152.541 53.9816C153.171 51.4631 153.793 48.9573 154.799 46.5263C155.832 43.4773 157.112 40.4731 158.644 37.534C159.903 35.168 161.134 32.9055 162.609 30.8064C173.431 14.9489 187.258 10.7525 193.481 21.4734Z" fill="#E38578"/>
<path d="M158.656 37.5416C162.04 43.981 165.287 50.3903 168.65 56.9205C173.121 62.2276 177.468 67.5122 181.939 72.8193C181.026 74.0899 180.093 75.3656 179.18 76.6362C177.811 78.1827 175.854 80.3712 173.451 82.9616C168.184 88.6553 166.53 90.0486 158.386 98.238C148.881 107.79 144.53 112.437 142.036 111.565C141.728 111.45 141.46 111.238 141.24 110.919C139.732 108.854 140.159 103.319 145.857 79.8633C148.26 70.2159 150.534 61.5878 152.56 53.9766C153.334 51.3897 154.093 48.9138 154.819 46.5212C155.844 43.4848 157.124 40.4807 158.656 37.5416Z" fill="#E38578"/>
<path d="M85.0521 6.78586C99.0369 9.75758 113.403 28.611 116.961 48.8287C117.848 54.2399 117.904 59.231 117.28 63.4527C115.459 75.3255 108.072 82.3099 97.7151 80.0674C89.9486 78.3839 82.1104 71.9782 75.9797 63.0428C74.4718 60.6988 72.9587 58.356 71.8556 55.7749C70.255 52.711 68.9194 49.4919 67.8593 46.1152C67.0265 43.3777 66.2507 40.735 65.8074 38.0294C62.259 17.8042 70.8758 3.79999 85.0521 6.78586Z" fill="#4CB07F"/>
<path d="M67.8633 46.109C76.0702 48.1805 84.1374 50.334 92.4014 52.5004C100.631 52.8822 108.726 53.3446 116.955 53.7264C117.197 55.3911 117.434 57.0572 117.675 58.717C117.752 60.9327 117.834 64.093 117.864 67.9007C117.925 76.2485 117.638 78.5816 117.225 91.0406C116.748 105.574 116.757 112.443 113.871 113.762C113.504 113.927 113.1 113.972 112.647 113.909C109.651 113.582 105.503 109.163 91.2913 87.3863C85.4919 78.3831 80.4338 70.238 75.9772 63.0331C74.5416 60.5149 73.1695 58.0951 71.8532 55.7652C70.2538 52.7061 68.9234 49.4857 67.8633 46.109Z" fill="#4CB07F"/>
<path d="M66.6778 138.293C67.5308 136.165 71.1187 134.296 74.6779 134.148C75.6266 134.118 76.4868 134.211 77.1968 134.391C79.1906 134.916 80.2087 136.208 79.5687 137.783C79.0923 138.964 77.7982 140.062 76.1106 140.84C75.6732 141.028 75.2329 141.219 74.7631 141.338C74.1976 141.526 73.6132 141.671 73.0073 141.77C72.5186 141.846 72.0444 141.914 71.5686 141.928C68.0123 142.078 65.8183 140.449 66.6778 138.293Z" fill="#F5E5A3"/>
<path d="M73.0073 141.77C73.5649 140.528 74.1304 139.313 74.7054 138.06C74.9708 136.78 75.2498 135.526 75.5181 134.243C75.8085 134.239 76.099 134.235 76.3952 134.231C76.7758 134.263 77.3239 134.314 77.9768 134.387C79.4105 134.546 79.8038 134.638 81.9339 134.95C84.4155 135.317 85.5963 135.454 85.7523 135.934C85.7707 135.994 85.7691 136.056 85.7475 136.127C85.6192 136.588 84.757 137.147 80.673 138.932C78.9867 139.659 77.4623 140.287 76.1162 140.84C75.6479 141.013 75.1997 141.178 74.7687 141.338C74.2003 141.529 73.6132 141.671 73.0073 141.77Z" fill="#F5E5A3"/>
<path d="M13.9833 97.956C21.4634 91.6288 38.9068 91.7304 52.8315 98.2592C56.5303 100.042 59.6355 102.096 61.9955 104.2C68.5967 110.15 69.9269 117.067 64.3649 121.734C60.1898 125.235 53.0724 126.8 45.0752 126.383C43.0175 126.219 40.9599 126.056 38.9195 125.575C36.3796 125.161 33.8534 124.537 31.3364 123.699C29.3097 123.008 27.3634 122.322 25.5145 121.428C11.5888 114.905 6.41472 104.382 13.9833 97.956Z" fill="#F5E5A3"/>
<path d="M31.3386 123.702C35.9305 120.127 40.5134 116.661 45.1857 113.089C48.7418 108.793 52.2945 104.606 55.8529 100.312C56.9765 100.877 58.1024 101.445 59.2261 102.009C60.6273 102.896 62.6124 104.17 64.9766 105.75C70.1608 109.209 71.4839 110.338 79.0157 115.768C87.8005 122.103 92.0484 124.972 91.6982 127.084C91.6527 127.353 91.5153 127.588 91.2963 127.809C89.8867 129.294 85.48 129.691 66.2956 128.281C58.3958 127.657 51.3205 126.993 45.0707 126.39C42.9361 126.114 40.8842 125.845 38.915 125.583C36.3784 125.166 33.85 124.54 31.3386 123.702Z" fill="#F5E5A3"/>
</svg>
