<svg width="161" height="159" viewBox="0 0 161 159" fill="none" xmlns="http://www.w3.org/2000/svg">
<path d="M93.6154 143.277C97.4573 145.607 105.384 144.317 111.258 140.392C112.812 139.333 114.088 138.183 115.015 137.068C117.604 133.93 117.718 130.718 114.869 129.007C112.732 127.723 109.38 127.526 105.769 128.273C104.839 128.488 103.922 128.716 103.034 129.068C101.909 129.439 100.799 129.897 99.7175 130.455C98.8451 130.918 97.9969 131.356 97.2266 131.892C91.3528 135.817 89.7229 140.923 93.6154 143.277Z" fill="#4CB07F"/>
<path d="M99.7173 130.455C102.054 131.732 104.377 132.973 106.751 134.261C108.675 135.951 110.573 137.591 112.485 139.268C112.962 138.942 113.426 138.603 113.903 138.276C114.474 137.772 115.289 137.06 116.261 136.181C118.388 134.256 118.906 133.654 121.95 130.676C125.503 127.209 127.227 125.608 126.936 124.681C126.895 124.57 126.818 124.472 126.703 124.388C125.961 123.812 123.917 123.949 115.3 125.947C111.754 126.779 108.582 127.575 105.77 128.298C104.817 128.564 103.901 128.842 103.035 129.093C101.909 129.439 100.799 129.898 99.7173 130.455Z" fill="#4CB07F"/>
<path d="M116.236 58.8812C113.726 62.6081 114.639 70.5874 118.281 76.6408C119.264 78.2428 120.353 79.5719 121.422 80.5513C124.434 83.2862 127.637 83.5528 129.482 80.7881C130.865 78.7146 131.221 75.3754 130.647 71.7333C130.475 70.7942 130.291 69.8674 129.982 68.9634C129.665 67.8221 129.259 66.6918 128.754 65.5848C128.332 64.6914 127.935 63.8233 127.437 63.0285C123.795 56.9751 118.772 55.1047 116.236 58.8812Z" fill="#E38578"/>
<path d="M128.754 65.5846C127.367 67.8577 126.018 70.1191 124.618 72.4295C122.839 74.2716 121.111 76.0896 119.345 77.9194C119.648 78.4114 119.965 78.8911 120.268 79.383C120.745 79.9778 121.417 80.8256 122.249 81.8383C124.071 84.0537 124.648 84.6002 127.478 87.7814C130.772 91.4947 132.29 93.293 133.23 93.0469C133.343 93.0113 133.444 92.9382 133.533 92.8273C134.145 92.1138 134.104 90.066 132.517 81.3638C131.854 77.7826 131.21 74.5761 130.622 71.7327C130.401 70.7678 130.167 69.8401 129.957 68.9628C129.664 67.8219 129.259 66.6916 128.754 65.5846Z" fill="#E38578"/>
<path d="M21.7817 57.5464C22.7682 72.2016 40.9541 91.1895 62.3391 99.7621C68.0744 102.001 73.4802 103.284 78.172 103.723C91.3517 104.87 100.107 99.2638 99.3406 88.4012C98.7539 80.2586 93.062 70.8575 84.3233 62.5359C82.0101 60.4485 79.7129 58.3687 77.0837 56.6201C74.0146 54.2735 70.7292 52.137 67.2359 50.2342C64.3988 48.7193 61.6584 47.289 58.7832 46.1855C37.3907 37.6288 20.8066 42.7014 21.7817 57.5464Z" fill="#F5E5A3"/>
<path d="M21.7817 57.5464C22.7682 72.2016 40.9541 91.1895 62.3391 99.7621C68.0744 102.001 73.4802 103.284 78.172 103.723C91.3517 104.87 100.107 99.2638 99.3406 88.4012C98.7539 80.2586 93.062 70.8575 84.3233 62.5359C82.0101 60.4485 79.7129 58.3687 77.0837 56.6201C74.0146 54.2735 70.7292 52.137 67.2359 50.2342C64.3988 48.7193 61.6584 47.289 58.7832 46.1855C37.3907 37.6288 20.8066 42.7014 21.7817 57.5464Z" fill="black" fill-opacity="0.05"/>
<path d="M67.2289 50.2504C68.1672 58.9299 69.2213 67.4884 70.2403 76.245C69.3379 84.524 68.5436 92.6978 67.6412 100.977C69.4008 101.632 71.184 102.278 72.9437 102.933C75.3422 103.558 78.7569 104.428 82.8845 105.401C91.9417 107.549 94.5219 107.83 108.116 110.539C123.978 113.694 131.423 115.413 133.323 112.875C133.553 112.554 133.678 112.164 133.684 111.698C133.804 108.632 129.675 103.404 108.302 83.8485C99.4521 75.8453 91.4126 68.7711 84.3002 62.5445C81.7982 60.4851 79.3853 58.5263 77.0607 56.6287C74.0075 54.2896 70.7222 52.1532 67.2289 50.2504Z" fill="#F5E5A3"/>
<path d="M67.2289 50.2504C68.1672 58.9299 69.2213 67.4884 70.2403 76.245C69.3379 84.524 68.5436 92.6978 67.6412 100.977C69.4008 101.632 71.184 102.278 72.9437 102.933C75.3422 103.558 78.7569 104.428 82.8845 105.401C91.9417 107.549 94.5219 107.83 108.116 110.539C123.978 113.694 131.423 115.413 133.323 112.875C133.553 112.554 133.678 112.164 133.684 111.698C133.804 108.632 129.675 103.404 108.302 83.8485C99.4521 75.8453 91.4126 68.7711 84.3002 62.5445C81.7982 60.4851 79.3853 58.5263 77.0607 56.6287C74.0075 54.2896 70.7222 52.1532 67.2289 50.2504Z" fill="black" fill-opacity="0.05"/>
</svg>
