<svg width="118" height="136" viewBox="0 0 118 136" fill="none" xmlns="http://www.w3.org/2000/svg">
<path d="M48.8298 103.359C52.7829 101.781 59.9886 104.222 64.865 108.806C66.1515 110.037 67.1644 111.311 67.8572 112.497C69.787 115.833 69.3929 118.852 66.464 120.007C64.2672 120.873 61.104 120.535 57.8466 119.274C57.0114 118.928 56.19 118.572 55.4148 118.105C54.4216 117.582 53.4561 116.981 52.5322 116.291C51.7893 115.722 51.0651 115.181 50.4288 114.56C45.5523 109.977 44.8256 104.951 48.8298 103.359Z" fill="#E38578"/>
<path d="M52.5321 116.291C54.9144 115.462 57.2782 114.665 59.6975 113.831C61.7591 112.553 63.7883 111.316 65.836 110.047C66.2308 110.427 66.6117 110.815 67.0065 111.195C67.4618 111.756 68.1123 112.547 68.8836 113.52C70.5703 115.651 70.9609 116.295 73.3403 119.551C76.1194 123.344 77.4809 125.109 77.0649 125.931C77.0094 126.028 76.9214 126.107 76.8009 126.168C76.0179 126.591 74.1298 126.144 66.3896 122.933C63.2063 121.603 60.3663 120.364 57.8511 119.251C57.0019 118.853 56.1897 118.451 55.4193 118.081C54.4215 117.582 53.456 116.981 52.5321 116.291Z" fill="#E38578"/>
<path d="M95.9765 45.8366C99.9824 47.2758 103.758 53.8808 104.37 60.545C104.517 62.3198 104.431 63.9449 104.164 65.2922C103.397 69.0689 101.1 71.0683 98.1416 69.991C95.9229 69.183 93.7789 66.8328 92.1761 63.7293C91.7805 62.9162 91.4014 62.1053 91.1308 61.2417C90.7336 60.1921 90.4094 59.1018 90.1748 57.9731C89.996 57.0544 89.8127 56.1689 89.7476 55.2826C89.1353 48.6185 91.9231 44.3741 95.9765 45.8366Z" fill="#4CB07F"/>
<path d="M90.1749 57.9728C92.5081 58.9314 94.806 59.902 97.1701 60.8816C99.5612 61.2912 101.9 61.7105 104.275 62.1178C104.319 62.6638 104.346 63.2075 104.39 63.7534C104.359 64.4748 104.321 65.499 104.254 66.7385C104.104 69.4517 103.97 70.1928 103.592 74.2081C103.158 78.8906 103.007 81.1144 102.151 81.4536C102.045 81.4897 101.927 81.4905 101.796 81.4559C100.93 81.2537 99.8123 79.6674 96.1462 72.1323C94.645 69.0258 93.3398 66.2159 92.195 63.7148C91.8227 62.8542 91.4813 62.0146 91.1497 61.2271C90.7337 60.1918 90.4095 59.1015 90.1749 57.9728Z" fill="#4CB07F"/>
<path d="M17.4345 18.2871C12.133 31.9854 20.5867 56.8813 36.3425 73.6908C40.5936 78.1445 44.95 81.5926 49.0166 83.9738C60.4756 90.5849 70.7804 89.2058 74.6778 79.0376C77.5885 71.4103 76.4046 60.4844 72.0031 49.2486C70.7893 46.3791 69.5867 43.5231 67.9432 40.8269C66.154 37.4028 64.0798 34.0778 61.7184 30.8766C59.7878 28.3043 57.9089 25.8495 55.7698 23.634C40.0004 6.83574 22.8267 4.42176 17.4345 18.2871Z" fill="#F5E5A3"/>
<path d="M17.4345 18.2871C12.133 31.9854 20.5867 56.8813 36.3425 73.6908C40.5936 78.1445 44.95 81.5926 49.0166 83.9738C60.4756 90.5849 70.7804 89.2058 74.6778 79.0376C77.5885 71.4103 76.4046 60.4844 72.0031 49.2486C70.7893 46.3791 69.5867 43.5231 67.9432 40.8269C66.154 37.4028 64.0798 34.0778 61.7184 30.8766C59.7878 28.3043 57.9089 25.8495 55.7698 23.634C40.0004 6.83574 22.8267 4.42176 17.4345 18.2871Z" fill="black" fill-opacity="0.05"/>
<path d="M61.7053 30.8883C58.8864 39.1507 56.2235 47.3524 53.4451 55.7188C49.1273 62.8401 44.9519 69.9118 40.6341 77.0331C41.9519 78.3706 43.2946 79.7104 44.6124 81.0479C46.5219 82.6281 49.2485 84.8604 52.5779 87.4867C59.8778 93.2624 62.0973 94.6081 73.2716 102.81C86.3127 112.375 92.3328 117.08 95.1282 115.583C95.472 115.389 95.7504 115.089 95.9522 114.669C97.3573 111.941 95.8256 105.458 84.7239 78.7003C80.0871 67.706 75.7919 57.8964 71.9787 49.2468C70.5819 46.3227 69.2233 43.5275 67.9189 40.825C66.1408 37.4145 64.0667 34.0895 61.7053 30.8883Z" fill="#F5E5A3"/>
<path d="M61.7053 30.8883C58.8864 39.1507 56.2235 47.3524 53.4451 55.7188C49.1273 62.8401 44.9519 69.9118 40.6341 77.0331C41.9519 78.3706 43.2946 79.7104 44.6124 81.0479C46.5219 82.6281 49.2485 84.8604 52.5779 87.4867C59.8778 93.2624 62.0973 94.6081 73.2716 102.81C86.3127 112.375 92.3328 117.08 95.1282 115.583C95.472 115.389 95.7504 115.089 95.9522 114.669C97.3573 111.941 95.8256 105.458 84.7239 78.7003C80.0871 67.706 75.7919 57.8964 71.9787 49.2468C70.5819 46.3227 69.2233 43.5275 67.9189 40.825C66.1408 37.4145 64.0667 34.0895 61.7053 30.8883Z" fill="black" fill-opacity="0.05"/>
</svg>
