<svg width="93" height="93" viewBox="0 0 93 93" fill="none" xmlns="http://www.w3.org/2000/svg">
<path d="M7.95428 28.336C10.1698 23.4391 19.0822 19.0843 27.8233 18.6653C30.1541 18.5729 32.2606 18.7668 33.9905 19.17C38.8527 20.3292 41.2736 23.2716 39.6113 26.8977C38.3707 29.6146 35.1361 32.1596 30.9521 33.9818C29.8626 34.4271 28.7722 34.864 27.6157 35.1553C26.2207 35.5988 24.7733 35.946 23.2799 36.1794C22.0699 36.366 20.9085 36.5306 19.7431 36.5768C11.0086 36.9781 5.71976 33.2944 7.95428 28.336Z" fill="#E38578"/>
<path d="M23.2874 36.1702C24.7254 33.3138 26.1854 30.5061 27.6729 27.6361C28.4072 24.7011 29.1553 21.8155 29.8887 18.8722C30.6078 18.8559 31.3185 18.8405 32.0376 18.8243C32.977 18.8866 34.3109 18.9922 35.9129 19.146C39.4248 19.4805 40.3867 19.6761 45.5888 20.3586C51.6584 21.1449 54.5466 21.4347 54.8987 22.5255C54.9473 22.6646 54.9371 22.8098 54.8775 22.9687C54.5313 24.0312 52.3872 25.3337 42.2605 29.5108C38.0809 31.2139 34.3088 32.6791 30.9688 33.9801C29.8162 34.3896 28.6954 34.7789 27.6324 35.1535C26.2198 35.5904 24.7715 35.9293 23.2874 36.1702Z" fill="#E38578"/>
<path d="M27.3411 40.5265C27.5275 38.9127 29.7494 36.8982 32.2895 36.0544C32.9706 35.8386 33.6111 35.7204 34.1589 35.6882C35.7044 35.6275 36.698 36.2862 36.5522 37.4802C36.4435 38.382 35.727 39.3902 34.6657 40.265C34.3832 40.4812 34.1099 40.705 33.7894 40.8829C33.4164 41.1256 33.0239 41.345 32.6037 41.5418C32.2638 41.6963 31.9398 41.8406 31.5954 41.9531C29.0646 42.8044 27.148 42.158 27.3411 40.5265Z" fill="#E38578"/>
<path d="M32.6132 41.5498C32.7669 40.5924 32.9308 39.6508 33.0929 38.6925C33.0303 37.7748 32.977 36.8646 32.9144 35.9468C33.128 35.882 33.3333 35.818 33.5469 35.7531C33.8295 35.6979 34.236 35.6128 34.7189 35.5281C35.7837 35.3313 36.0874 35.3163 37.6907 35.0799C39.5615 34.8068 40.4359 34.6555 40.6447 34.9473C40.6743 34.9866 40.6787 35.0285 40.684 35.0788C40.6857 35.4178 40.1758 35.9718 37.5774 38.0343C36.5042 38.8765 35.5312 39.6233 34.6669 40.2739C34.3676 40.4919 34.0749 40.6923 33.7906 40.8918C33.4259 41.1336 33.0251 41.3539 32.6132 41.5498Z" fill="#E38578"/>
<path d="M72.1903 74.4613C66.9044 72.4987 62.3483 64.252 62.074 56.0807C62.031 53.8974 62.2819 51.9291 62.7553 50.3021C64.1223 45.7233 67.3798 43.3964 71.2912 44.8676C74.223 45.9754 76.9261 48.9389 78.8172 52.8104C79.2797 53.8218 79.7339 54.834 80.0247 55.9058C80.4836 57.2059 80.8203 58.5527 81.0515 59.9445C81.2293 61.0706 81.3859 62.1565 81.4074 63.2482C81.6808 71.4111 77.5543 76.4412 72.1903 74.4613Z" fill="#4CB07F"/>
<path d="M81.0588 59.9353C77.9734 58.6571 74.9524 57.3467 71.8541 56.0274C68.6689 55.4126 65.5396 54.7665 62.3544 54.1518C62.3518 53.4821 62.3492 52.8125 62.3466 52.1428C62.4412 51.2679 62.5808 50.0152 62.7787 48.5104C63.2124 45.2169 63.4571 44.3178 64.2998 39.4295C65.286 33.729 65.6624 31.0182 66.8631 30.663C67.0114 30.622 67.1725 30.622 67.3473 30.6714C68.4976 30.966 69.8681 32.9503 74.2051 42.3394C75.9696 46.2157 77.4904 49.7107 78.8338 52.8087C79.2522 53.8841 79.6578 54.9184 80.0413 55.9041C80.491 57.1966 80.8277 58.5435 81.0588 59.9353Z" fill="#4CB07F"/>
<path d="M57.3996 47.3546C56.9393 46.6059 57.2489 45.1148 58.0934 44.0339C58.3177 43.7474 58.5649 43.5179 58.8015 43.3488C59.4646 42.8805 60.1267 42.8872 60.4653 43.4452C60.7208 43.8593 60.7375 44.502 60.5622 45.1734C60.5128 45.3482 60.4633 45.523 60.3785 45.6846C60.2991 45.8964 60.1936 46.1026 60.0788 46.3012C59.9772 46.4645 59.8832 46.6186 59.7706 46.7576C58.9261 47.8386 57.8609 48.1117 57.3996 47.3546Z" fill="#4CB07F"/>
<path d="M60.0788 46.301C59.8273 45.8441 59.585 45.3947 59.3334 44.9378C58.9966 44.5577 58.6691 44.1851 58.3323 43.805C58.4083 43.7207 58.4749 43.6289 58.5509 43.5446C58.6586 43.44 58.8122 43.2881 58.9976 43.116C59.4069 42.7338 59.5322 42.6358 60.1613 42.0863C60.899 41.4405 61.2389 41.1249 61.4239 41.1903C61.4499 41.196 61.4685 41.211 61.4879 41.2344C61.6053 41.3832 61.5602 41.7611 61.1037 43.3863C60.9107 44.0511 60.7274 44.647 60.5623 45.1732C60.4961 45.3498 60.4382 45.5254 60.3786 45.6843C60.2991 45.8962 60.202 46.1015 60.0788 46.301Z" fill="#4CB07F"/>
<path d="M23.4362 63.3073C22.2453 57.8697 27.2625 49.1334 34.6556 43.8785C36.6465 42.4904 38.6008 41.4793 40.3759 40.8601C45.3752 39.1302 49.3814 40.2946 50.2388 44.3342C50.8878 47.3611 49.6797 51.355 47.1813 55.2556C46.5134 56.2417 45.8379 57.2371 45.0075 58.13C44.0702 59.2971 43.0244 60.3992 41.8699 61.4364C40.9318 62.2729 40.0145 63.0647 39.0269 63.7537C31.6348 69.017 24.6519 68.8186 23.4362 63.3073Z" fill="#F5E5A3"/>
<path d="M41.8706 61.4448C41.2993 58.1893 40.7902 54.9611 40.2489 51.6684C39.0078 48.7377 37.8216 45.8436 36.5889 42.9119C37.207 42.4993 37.825 42.0866 38.4421 41.6655C39.3092 41.2012 40.5368 40.5379 42.0417 39.7691C45.3327 38.0831 46.295 37.719 51.2904 35.3874C57.1096 32.6639 59.8231 31.2931 60.8331 32.0264C60.962 32.1231 61.0432 32.2502 61.0952 32.4228C61.4743 33.5278 60.4288 35.8425 54.2286 45.1017C51.6516 48.9004 49.2932 52.2775 47.1979 55.2539C46.4461 56.2488 45.7242 57.2066 45.0241 58.1283C44.0709 59.3055 43.0251 60.4076 41.8706 61.4448Z" fill="#F5E5A3"/>
<path d="M16.0483 60.0648C15.3628 58.9497 15.7943 56.6826 17.0269 55.0181C17.362 54.5758 17.7152 54.2249 18.0604 53.9597C19.036 53.238 20.0177 53.2196 20.5297 54.0561C20.9088 54.6777 20.9507 55.64 20.7025 56.6667C20.6283 56.9289 20.5625 57.1902 20.4455 57.4485C20.3263 57.7663 20.182 58.0867 20.0023 58.394C19.8583 58.6381 19.7144 58.8822 19.5511 59.1029C18.3176 60.759 16.7522 61.1949 16.0483 60.0648Z" fill="#F5E5A3"/>
<path d="M20.0024 58.3937C19.6255 57.7125 19.2579 57.0389 18.8801 56.3493C18.372 55.7922 17.8892 55.2324 17.3802 54.6669C17.4853 54.5371 17.5895 54.399 17.6946 54.2692C17.8473 54.109 18.0694 53.8821 18.3457 53.6071C18.9444 53.0099 19.1324 52.863 20.0604 52.0106C21.1429 51.0149 21.643 50.5298 21.9238 50.619C21.9591 50.6322 21.9869 50.6548 22.0156 50.6857C22.1829 50.9055 22.1338 51.4873 21.4767 53.9478C21.2016 54.9604 20.9402 55.8613 20.7027 56.6664C20.6126 56.9388 20.53 57.2019 20.4457 57.4482C20.3274 57.7744 20.1821 58.0864 20.0024 58.3937Z" fill="#F5E5A3"/>
</svg>
