<svg width="134" height="123" viewBox="0 0 134 123" fill="none" xmlns="http://www.w3.org/2000/svg">
<path d="M86.414 97.9356C85.156 102.002 78.7269 106.07 72.0969 106.981C70.3304 107.207 68.7031 107.194 67.3452 106.987C63.5378 106.39 61.4375 104.185 62.381 101.182C63.0887 98.9291 65.3404 96.6819 68.3689 94.9415C69.1634 94.5098 69.9565 94.0948 70.8071 93.7857C71.8379 93.3418 72.9125 92.969 74.0296 92.684C74.9393 92.4642 75.8157 92.2414 76.6982 92.1366C83.3281 91.2261 87.6932 93.8207 86.414 97.9356Z" fill="#4CB07F"/>
<path d="M74.0297 92.684C73.1768 95.0579 72.3102 97.397 71.4376 99.8027C71.1356 102.21 70.8216 104.565 70.5212 106.956C69.9777 107.024 69.4358 107.076 68.8924 107.144C68.1704 107.146 67.1455 107.154 65.9042 107.142C63.187 107.114 62.4407 107.013 58.4125 106.816C53.7152 106.592 51.4869 106.541 51.1097 105.701C51.0688 105.597 51.0627 105.479 51.0914 105.347C51.2546 104.472 52.7891 103.285 60.1522 99.2843C63.1883 97.6454 65.9368 96.2154 68.3841 94.9597C69.2272 94.5492 70.0505 94.1704 70.8224 93.8038C71.838 93.3418 72.9126 92.969 74.0297 92.684Z" fill="#4CB07F"/>
<path d="M110.414 18.2373C96.4914 13.5555 71.9997 23.1171 55.9138 39.611C51.6552 44.0575 48.4059 48.5642 46.2095 52.7334C40.1189 64.4775 41.9588 74.71 52.2915 78.1475C60.0417 80.7132 70.9035 79.0405 81.9306 74.1395C84.7428 72.7982 87.542 71.4688 90.1618 69.7061C93.5022 67.765 96.7309 65.5438 99.8229 63.0412C102.306 60.9972 104.674 59.0101 106.791 56.7738C122.866 40.2669 124.507 23.0022 110.414 18.2373Z" fill="#F5E5A3"/>
<path d="M110.414 18.2373C96.4914 13.5555 71.9997 23.1171 55.9138 39.611C51.6552 44.0575 48.4059 48.5642 46.2095 52.7334C40.1189 64.4775 41.9588 74.71 52.2915 78.1475C60.0417 80.7132 70.9035 79.0405 81.9306 74.1395C84.7428 72.7982 87.542 71.4688 90.1618 69.7061C93.5022 67.765 96.7309 65.5438 99.8229 63.0412C102.306 60.9972 104.674 59.0101 106.791 56.7738C122.866 40.2669 124.507 23.0022 110.414 18.2373Z" fill="black" fill-opacity="0.05"/>
<path d="M99.8109 63.0285C91.4304 60.583 83.1175 58.2906 74.6349 55.8902C67.3272 51.8961 60.0753 48.0421 52.7675 44.048C51.4905 45.4245 50.2122 46.8258 48.9351 48.2023C47.4421 50.1808 45.3344 53.0048 42.86 56.4486C37.4175 64.0002 36.1728 66.2778 28.4805 77.8086C19.5101 91.2656 15.0799 97.4907 16.7002 100.216C16.9093 100.551 17.2216 100.816 17.6503 100.998C20.4384 102.28 26.8467 100.459 53.0793 88.1682C63.8546 83.043 73.4617 78.3122 81.9316 74.1149C84.7901 72.5884 87.5216 71.1058 90.1628 69.6815C93.4901 67.7523 96.7188 65.5311 99.8109 63.0285Z" fill="#F5E5A3"/>
<path d="M99.8109 63.0285C91.4304 60.583 83.1175 58.2906 74.6349 55.8902C67.3272 51.8961 60.0753 48.0421 52.7675 44.048C51.4905 45.4245 50.2122 46.8258 48.9351 48.2023C47.4421 50.1808 45.3344 53.0048 42.86 56.4486C37.4175 64.0002 36.1728 66.2778 28.4805 77.8086C19.5101 91.2656 15.0799 97.4907 16.7002 100.216C16.9093 100.551 17.2216 100.816 17.6503 100.998C20.4384 102.28 26.8467 100.459 53.0793 88.1682C63.8546 83.043 73.4617 78.3122 81.9316 74.1149C84.7901 72.5884 87.5216 71.1058 90.1628 69.6815C93.4901 67.7523 96.7188 65.5311 99.8109 63.0285Z" fill="black" fill-opacity="0.05"/>
</svg>
