<svg width="177" height="177" viewBox="0 0 177 177" fill="none" xmlns="http://www.w3.org/2000/svg">
<g clip-path="url(#clip0_765_78)">
<path d="M119.147 144.866C112 148.907 97.0861 146.241 85.9311 138.877C82.9741 136.89 80.5518 134.752 78.7824 132.695C73.8327 126.882 73.5005 121.072 78.8191 118.1C82.7981 115.869 89.0805 115.647 95.8819 117.172C97.6266 117.605 99.3649 118.05 101.053 118.733C103.173 119.444 105.271 120.321 107.322 121.38C108.982 122.24 110.563 123.084 112.041 124.078C123.172 131.458 126.372 140.768 119.147 144.866Z" fill="#E38578"/>
<path d="M107.306 121.383C102.957 123.609 98.626 125.754 94.2047 127.952C90.6533 130.908 87.1296 133.791 83.5717 136.759C82.6704 136.131 81.7803 135.509 80.8791 134.881C79.7771 133.957 78.2276 132.624 76.3912 130.991C72.3627 127.412 71.3532 126.304 65.5546 120.772C58.7801 114.331 55.4804 111.37 56.0296 109.707C56.0952 109.492 56.2386 109.322 56.4554 109.18C57.84 108.182 61.6578 108.509 77.9092 112.489C84.5978 114.157 90.5695 115.751 95.8603 117.158C97.6506 117.693 99.3834 118.223 101.032 118.719C103.167 119.454 105.259 120.342 107.306 121.383Z" fill="#E38578"/>
<path d="M106.235 112.359C104.55 114.18 99.9942 114.661 96.1018 113.411C95.0675 113.063 94.1712 112.632 93.4667 112.177C91.5065 110.859 90.8753 109.151 92.1315 107.81C93.0786 106.796 94.8709 106.199 96.968 106.078C97.5114 106.066 98.05 106.036 98.6055 106.106C99.2843 106.143 99.9659 106.226 100.662 106.362C101.22 106.478 101.749 106.593 102.275 106.764C106.163 107.996 107.943 110.521 106.235 112.359Z" fill="#E38578"/>
<path d="M100.657 106.344C99.6043 107.386 98.5534 108.399 97.4896 109.434C96.7394 110.622 95.9846 111.793 95.2344 112.98C94.9125 112.868 94.6017 112.762 94.2798 112.649C93.8817 112.462 93.3037 112.201 92.6319 111.87C91.1418 111.153 90.7538 110.897 88.5639 109.743C86.0112 108.393 84.7966 107.792 84.8022 107.244C84.8012 107.169 84.8336 107.113 84.8724 107.046C85.1759 106.627 86.304 106.403 91.3671 106.203C93.4495 106.132 95.3224 106.088 96.9746 106.066C97.5402 106.067 98.0817 106.083 98.6121 106.094C99.2797 106.124 99.9725 106.214 100.657 106.344Z" fill="#E38578"/>
<path d="M81.5318 30.0859C86.2796 37.2711 84.4622 51.5462 77.4337 61.8681C75.5184 64.5988 73.4346 66.7994 71.3841 68.3787C65.5706 72.7915 59.4566 72.7237 55.9605 67.3836C53.3444 63.3746 52.6835 57.2838 53.8421 50.8056C54.1836 49.1417 54.5363 47.4843 55.144 45.9006C55.7502 43.884 56.5493 41.9199 57.5191 39.9954C58.3151 38.4468 59.101 36.9667 60.0586 35.6014C67.0807 25.2906 76.7032 22.809 81.5318 30.0859Z" fill="#4CB07F"/>
<path d="M81.5318 30.0859C86.2796 37.2711 84.4622 51.5462 77.4337 61.8681C75.5184 64.5988 73.4346 66.7994 71.3841 68.3787C65.5706 72.7915 59.4566 72.7237 55.9605 67.3836C53.3444 63.3746 52.6835 57.2838 53.8421 50.8056C54.1836 49.1417 54.5363 47.4843 55.144 45.9006C55.7502 43.884 56.5493 41.9199 57.5191 39.9954C58.3151 38.4468 59.101 36.9667 60.0586 35.6014C67.0807 25.2906 76.7032 22.809 81.5318 30.0859Z" fill="black" fill-opacity="0.2"/>
<path d="M57.5017 40.0002C60.1535 44.3578 62.6968 48.6971 65.3274 53.1168C68.7004 56.7464 71.976 60.3641 75.349 63.9937C74.7485 64.8217 74.148 65.6496 73.5474 66.4776C72.6421 67.4711 71.3406 68.8898 69.74 70.5667C66.236 74.2362 65.1237 75.1243 59.6778 80.3915C53.3226 86.5307 50.4147 89.5336 48.6141 88.889C48.3942 88.8059 48.1956 88.6607 48.0247 88.4421C46.8719 87.0419 46.9712 83.3598 50.0885 67.8737C51.4077 61.5037 52.6834 55.8236 53.8201 50.7928C54.2738 49.0898 54.7062 47.4489 55.122 45.8878C55.7328 43.8888 56.5319 41.9247 57.5017 40.0002Z" fill="#4CB07F"/>
<path d="M57.5017 40.0002C60.1535 44.3578 62.6968 48.6971 65.3274 53.1168C68.7004 56.7464 71.976 60.3641 75.349 63.9937C74.7485 64.8217 74.148 65.6496 73.5474 66.4776C72.6421 67.4711 71.3406 68.8898 69.74 70.5667C66.236 74.2362 65.1237 75.1243 59.6778 80.3915C53.3226 86.5307 50.4147 89.5336 48.6141 88.889C48.3942 88.8059 48.1956 88.6607 48.0247 88.4421C46.8719 87.0419 46.9712 83.3598 50.0885 67.8737C51.4077 61.5037 52.6834 55.8236 53.8201 50.7928C54.2738 49.0898 54.7062 47.4489 55.122 45.8878C55.7328 43.8888 56.5319 41.9247 57.5017 40.0002Z" fill="black" fill-opacity="0.2"/>
<path d="M75.3305 76.8411C75.2231 78.1792 73.4971 79.7385 71.4813 80.3099C70.9465 80.4609 70.4348 80.521 69.9906 80.5161C68.7509 80.4957 67.9406 79.8905 68.0263 78.8974C68.0845 78.1564 68.6433 77.3489 69.4648 76.6792C69.6833 76.5083 69.9019 76.3373 70.152 76.2146C70.4411 76.025 70.757 75.866 71.0776 75.7246C71.35 75.6147 71.6049 75.5096 71.869 75.4397C73.8848 74.8683 75.4444 75.4918 75.3305 76.8411Z" fill="#4CB07F"/>
<path d="M75.3305 76.8411C75.2231 78.1792 73.4971 79.7385 71.4813 80.3099C70.9465 80.4609 70.4348 80.521 69.9906 80.5161C68.7509 80.4957 67.9406 79.8905 68.0263 78.8974C68.0845 78.1564 68.6433 77.3489 69.4648 76.6792C69.6833 76.5083 69.9019 76.3373 70.152 76.2146C70.4411 76.025 70.757 75.866 71.0776 75.7246C71.35 75.6147 71.6049 75.5096 71.869 75.4397C73.8848 74.8683 75.4444 75.4918 75.3305 76.8411Z" fill="black" fill-opacity="0.15"/>
<path d="M71.0768 75.7247C70.9751 76.5148 70.8687 77.2873 70.7669 78.0775C70.8395 78.8497 70.9074 79.6043 70.9799 80.3766C70.8103 80.4121 70.6453 80.4652 70.4757 80.5007C70.2486 80.5325 69.9223 80.5812 69.5385 80.6263C68.6893 80.7286 68.4464 80.7364 67.1754 80.8468C65.6837 80.9779 64.9801 81.0605 64.811 80.8132C64.784 80.7827 64.7747 80.7475 64.7719 80.7011C64.7612 80.4118 65.1574 79.9866 67.1856 78.3943C68.0229 77.7487 68.786 77.1792 69.464 76.6793C69.7048 76.5213 69.9345 76.3569 70.1513 76.2147C70.4403 76.0251 70.7451 75.8596 71.0768 75.7247Z" fill="#4CB07F"/>
<path d="M71.0768 75.7247C70.9751 76.5148 70.8687 77.2873 70.7669 78.0775C70.8395 78.8497 70.9074 79.6043 70.9799 80.3766C70.8103 80.4121 70.6453 80.4652 70.4757 80.5007C70.2486 80.5325 69.9223 80.5812 69.5385 80.6263C68.6893 80.7286 68.4464 80.7364 67.1754 80.8468C65.6837 80.9779 64.9801 81.0605 64.811 80.8132C64.784 80.7827 64.7747 80.7475 64.7719 80.7011C64.7612 80.4118 65.1574 79.9866 67.1856 78.3943C68.0229 77.7487 68.786 77.1792 69.464 76.6793C69.7048 76.5213 69.9345 76.3569 70.1513 76.2147C70.4403 76.0251 70.7451 75.8596 71.0768 75.7247Z" fill="black" fill-opacity="0.15"/>
<path d="M131.587 87.7917C128.153 95.5695 114.091 101.818 100.238 101.631C96.5321 101.548 93.211 101.033 90.4643 100.196C82.7409 97.8217 78.8512 92.7742 81.436 87.0208C83.3646 82.7037 88.4548 78.8686 95.0517 76.3117C96.7643 75.6982 98.4944 75.0799 100.323 74.7276C102.531 74.1337 104.814 73.7177 107.173 73.4796C109.083 73.2941 110.928 73.1449 112.767 73.1857C126.626 73.3607 135.057 79.9007 131.587 87.7917Z" fill="#1A353D"/>
<path d="M107.179 73.4685C104.949 77.9975 102.666 82.4366 100.365 86.9842C99.2528 91.7165 98.1063 96.3542 96.983 101.08C95.849 101.032 94.715 100.983 93.5744 100.946C92.0869 100.737 89.9752 100.448 87.4267 100.039C81.8492 99.1508 80.3344 98.7321 72.0734 97.1032C62.4435 95.215 57.862 94.4587 57.2779 92.6441C57.2062 92.4087 57.2207 92.1788 57.3121 91.919C57.8408 90.2149 61.2167 88.3036 77.2087 82.4773C83.8106 80.117 89.763 78.0794 95.0296 76.2988C96.8535 75.7499 98.607 75.2198 100.301 74.7147C102.538 74.1226 104.821 73.7066 107.179 73.4685Z" fill="#1A353D"/>
<path d="M137.772 98.45C137.612 100.443 135.036 102.849 132.016 103.79C131.204 104.033 130.452 104.147 129.787 104.163C127.934 104.173 126.707 103.311 126.83 101.818C126.922 100.71 127.738 99.4858 128.97 98.4437C129.298 98.1873 129.615 97.9244 129.992 97.7115C130.425 97.4271 130.892 97.1622 131.391 96.9454C131.788 96.7742 132.186 96.603 132.586 96.4782C135.6 95.5483 137.923 96.422 137.772 98.45Z" fill="#1A353D"/>
<path d="M131.39 96.9455C131.241 98.1252 131.086 99.2872 130.931 100.478C131.055 101.623 131.145 102.748 131.263 103.904C131.017 103.97 130.764 104.046 130.517 104.111C130.184 104.171 129.706 104.251 129.117 104.341C127.841 104.537 127.476 104.549 125.564 104.763C123.332 105.015 122.278 105.162 122.012 104.799C121.98 104.751 121.966 104.698 121.959 104.634C121.951 104.212 122.536 103.539 125.564 101.098C126.816 100.097 127.951 99.2223 128.969 98.4438C129.326 98.1892 129.665 97.9393 129.991 97.7116C130.431 97.4161 130.891 97.1623 131.39 96.9455Z" fill="#1A353D"/>
</g>
<defs>
<clipPath id="clip0_765_78">
<rect width="128.811" height="128.811" fill="white" transform="translate(64.738) rotate(30.1711)"/>
</clipPath>
</defs>
</svg>
