<svg width="133" height="123" viewBox="0 0 133 123" fill="none" xmlns="http://www.w3.org/2000/svg">
<path d="M85.8637 97.9358C84.6057 102.002 78.1766 106.07 71.5466 106.981C69.7801 107.207 68.1528 107.194 66.7949 106.987C62.9875 106.391 60.8872 104.186 61.8307 101.182C62.5384 98.9293 64.7901 96.6821 67.8186 94.9417C68.6131 94.51 69.4062 94.095 70.2568 93.7859C71.2876 93.342 72.3622 92.9692 73.4793 92.6843C74.389 92.4645 75.2654 92.2416 76.1479 92.1369C82.7779 91.2263 87.1429 93.8209 85.8637 97.9358Z" fill="#4CB07F"/>
<path d="M73.4794 92.684C72.6265 95.058 71.7599 97.3971 70.8873 99.8028C70.5854 102.21 70.2713 104.565 69.9709 106.956C69.4275 107.024 68.8856 107.076 68.3421 107.144C67.6201 107.146 66.5952 107.154 65.3539 107.142C62.6367 107.114 61.8904 107.013 57.8622 106.816C53.1649 106.592 50.9366 106.542 50.5594 105.701C50.5185 105.597 50.5124 105.479 50.5411 105.347C50.7043 104.472 52.2388 103.285 59.6019 99.2844C62.638 97.6455 65.3865 96.2155 67.8339 94.9597C68.6769 94.5492 69.5002 94.1705 70.2721 93.8038C71.2877 93.3418 72.3624 92.969 73.4794 92.684Z" fill="#4CB07F"/>
<path d="M109.863 18.2372C95.9409 13.5554 71.4492 23.117 55.3632 39.6109C51.1047 44.0574 47.8553 48.5641 45.659 52.7333C39.5684 64.4774 41.4083 74.7099 51.741 78.1474C59.4912 80.7131 70.353 79.0404 81.3801 74.1394C84.1923 72.7981 86.9915 71.4687 89.6112 69.706C92.9516 67.7649 96.1803 65.5437 99.2724 63.0411C101.756 60.9971 104.124 59.01 106.241 56.7737C122.315 40.2668 123.956 23.0021 109.863 18.2372Z" fill="#F5E5A3"/>
<path d="M109.863 18.2372C95.9409 13.5554 71.4492 23.117 55.3632 39.6109C51.1047 44.0574 47.8553 48.5641 45.659 52.7333C39.5684 64.4774 41.4083 74.7099 51.741 78.1474C59.4912 80.7131 70.353 79.0404 81.3801 74.1394C84.1923 72.7981 86.9915 71.4687 89.6112 69.706C92.9516 67.7649 96.1803 65.5437 99.2724 63.0411C101.756 60.9971 104.124 59.01 106.241 56.7737C122.315 40.2668 123.956 23.0021 109.863 18.2372Z" fill="black" fill-opacity="0.05"/>
<path d="M99.2602 63.0283C90.8796 60.5827 82.5668 58.2903 74.0841 55.8899C66.7764 51.8958 59.5245 48.0418 52.2168 44.0478C50.9397 45.4242 49.6614 46.8256 48.3843 48.202C46.8914 50.1805 44.7836 53.0045 42.3092 56.4484C36.8668 63.9999 35.622 66.2775 27.9297 77.8083C18.9593 91.2653 14.5291 97.4904 16.1494 100.216C16.3585 100.551 16.6708 100.815 17.0995 100.998C19.8876 102.279 26.2959 100.458 52.5285 88.1679C63.3038 83.0427 72.911 78.3119 81.3809 74.1147C84.2394 72.5881 86.9708 71.1055 89.6121 69.6812C92.9394 67.752 96.1681 65.5308 99.2602 63.0283Z" fill="#F5E5A3"/>
<path d="M99.2602 63.0283C90.8796 60.5827 82.5668 58.2903 74.0841 55.8899C66.7764 51.8958 59.5245 48.0418 52.2168 44.0478C50.9397 45.4242 49.6614 46.8256 48.3843 48.202C46.8914 50.1805 44.7836 53.0045 42.3092 56.4484C36.8668 63.9999 35.622 66.2775 27.9297 77.8083C18.9593 91.2653 14.5291 97.4904 16.1494 100.216C16.3585 100.551 16.6708 100.815 17.0995 100.998C19.8876 102.279 26.2959 100.458 52.5285 88.1679C63.3038 83.0427 72.911 78.3119 81.3809 74.1147C84.2394 72.5881 86.9708 71.1055 89.6121 69.6812C92.9394 67.752 96.1681 65.5308 99.2602 63.0283Z" fill="black" fill-opacity="0.05"/>
</svg>
