<svg id="Calque_1" data-name="Calque 1" xmlns="http://www.w3.org/2000/svg" viewBox="0 0 99.22 41.82"><g style="isolation:isolate"><path d="M207.8,229.86a5.35,5.35,0,0,1-.82,2.68,4.92,4.92,0,0,1-2.09,1.8,7.22,7.22,0,0,1-3.08.64,5.72,5.72,0,0,1-4.51-1.86,7.68,7.68,0,0,1-1.65-5.26v-.72a8.87,8.87,0,0,1,.74-3.73,5.55,5.55,0,0,1,2.13-2.47,5.9,5.9,0,0,1,3.23-.88,6.25,6.25,0,0,1,4.25,1.39,5.44,5.44,0,0,1,1.82,3.83h-3.48a2.6,2.6,0,0,0-.67-1.9,2.74,2.74,0,0,0-1.92-.58,2.09,2.09,0,0,0-1.91,1,6.34,6.34,0,0,0-.63,3.12v1a7,7,0,0,0,.58,3.31,2.13,2.13,0,0,0,2,1,2.7,2.7,0,0,0,1.85-.57,2.41,2.41,0,0,0,.67-1.81Z" transform="translate(-195.65 -213.41)" style="fill:#1a353d"/><path d="M209.26,221.21a1.53,1.53,0,0,1,.52-1.18,2,2,0,0,1,1.35-.46,2,2,0,0,1,1.34.46,1.5,1.5,0,0,1,.52,1.18,1.48,1.48,0,0,1-.52,1.17,1.91,1.91,0,0,1-1.34.46,2,2,0,0,1-1.35-.46A1.53,1.53,0,0,1,209.26,221.21Zm3.59,13.56h-3.37V224h3.36Z" transform="translate(-195.65 -213.41)" style="fill:#1a353d"/><path d="M218,224l.11,1.27a3.64,3.64,0,0,1,3.07-1.47,3.07,3.07,0,0,1,2.52,1,4.76,4.76,0,0,1,.87,3v6.94H221.2V228a1.83,1.83,0,0,0-.33-1.2,1.55,1.55,0,0,0-1.2-.38,1.59,1.59,0,0,0-1.46.78v7.61h-3.36V224Z" transform="translate(-195.65 -213.41)" style="fill:#1a353d"/><path d="M231.64,235a5.52,5.52,0,0,1-4-1.48,5.11,5.11,0,0,1-1.54-3.85v-.28a6.63,6.63,0,0,1,.61-2.92,4.59,4.59,0,0,1,1.79-2,5.4,5.4,0,0,1,2.79-.69,4.68,4.68,0,0,1,3.59,1.4,5.62,5.62,0,0,1,1.32,3.93v1.31H229.5a2.41,2.41,0,0,0,.79,1.42,2.36,2.36,0,0,0,1.57.52,3,3,0,0,0,2.49-1.12l1.54,1.81a4.25,4.25,0,0,1-1.78,1.38A6,6,0,0,1,231.64,235Zm-.44-15.52h3.55L232,222.56h-2.74Zm.05,6.93c-1,0-1.57.65-1.75,1.95h3.39v-.26a1.7,1.7,0,0,0-.41-1.25A1.67,1.67,0,0,0,231.25,226.36Z" transform="translate(-195.65 -213.41)" style="fill:#1a353d"/><path d="M240.69,224l.11,1.26a3.73,3.73,0,0,1,3.08-1.46,2.71,2.71,0,0,1,2.76,1.62,3.58,3.58,0,0,1,3.17-1.63q3.28,0,3.37,4v7h-3.37v-6.81a2,2,0,0,0-.28-1.2,1.18,1.18,0,0,0-1-.38,1.6,1.6,0,0,0-1.49.89v7.5h-3.37V228a2.14,2.14,0,0,0-.27-1.22,1.18,1.18,0,0,0-1-.38,1.59,1.59,0,0,0-1.47.89v7.5h-3.35l0-10.78Z" transform="translate(-195.65 -213.41)" style="fill:#1a353d"/><path d="M261.18,234.72a3.64,3.64,0,0,1-.32-1,3.12,3.12,0,0,1-2.59,1.17,3.79,3.79,0,0,1-2.59-.92,2.92,2.92,0,0,1-1.07-2.31A3,3,0,0,1,255.9,229a6.77,6.77,0,0,1,3.77-.9h1v-.57c0-1-.43-1.49-1.28-1.49a1.05,1.05,0,0,0-1.2,1.18h-3.35a3,3,0,0,1,1.32-2.54,5.6,5.6,0,0,1,3.39-1,4.89,4.89,0,0,1,3.26,1,3.49,3.49,0,0,1,1.23,2.76v4.77a4.93,4.93,0,0,0,.46,2.28v.16Zm-2.1-2.19a1.89,1.89,0,0,0,1-.27,1.7,1.7,0,0,0,.59-.61v-1.72h-1c-1.17,0-1.75.52-1.75,1.57a1,1,0,0,0,.31.75A1.15,1.15,0,0,0,259.08,232.53Z" transform="translate(-195.65 -213.41)" style="fill:#1a353d"/></g><g style="isolation:isolate"><path d="M201.38,252.34h6.09V255h-9.58v-14.5h3.5Z" transform="translate(-195.65 -213.41)" style="fill:#1a353d"/><path d="M214,255.22a5.56,5.56,0,0,1-4-1.47,5.13,5.13,0,0,1-1.54-3.85v-.28a6.71,6.71,0,0,1,.61-2.92,4.48,4.48,0,0,1,1.79-2,5.55,5.55,0,0,1,2.79-.7,4.67,4.67,0,0,1,3.59,1.41,5.53,5.53,0,0,1,1.32,3.93v1.31h-6.68a2.41,2.41,0,0,0,.79,1.43,2.35,2.35,0,0,0,1.57.51,3,3,0,0,0,2.49-1.11l1.54,1.81a4.25,4.25,0,0,1-1.78,1.38A6,6,0,0,1,214,255.22Zm-.39-8.58c-1,0-1.56.65-1.75,2h3.39v-.26a1.69,1.69,0,0,0-.41-1.25A1.59,1.59,0,0,0,213.62,246.64Z" transform="translate(-195.65 -213.41)" style="fill:#1a353d"/><path d="M234.27,249.24h-5.64V255h-3.49V240.51h9.7v2.7h-6.2v3.34h5.64Z" transform="translate(-195.65 -213.41)" style="fill:#1a353d"/><path d="M241.15,255.21a5.54,5.54,0,0,1-4-1.48,5.11,5.11,0,0,1-1.53-3.85v-.28a6.49,6.49,0,0,1,.61-2.92,4.43,4.43,0,0,1,1.78-2,5.35,5.35,0,0,1,2.79-.7,4.67,4.67,0,0,1,3.59,1.41,5.53,5.53,0,0,1,1.32,3.93v1.3H239a2.44,2.44,0,0,0,.79,1.42,2.33,2.33,0,0,0,1.58.52,3,3,0,0,0,2.49-1.12l1.53,1.82a4.42,4.42,0,0,1-1.78,1.38A6,6,0,0,1,241.15,255.21Zm-.39-8.59c-1,0-1.56.65-1.75,2h3.39v-.26a1.68,1.68,0,0,0-.41-1.25A1.65,1.65,0,0,0,240.76,246.62Z" transform="translate(-195.65 -213.41)" style="fill:#1a353d"/><path d="M252.68,252a.78.78,0,0,0-.44-.69,7.14,7.14,0,0,0-1.71-.54,7.53,7.53,0,0,1-2.07-.73,3.47,3.47,0,0,1-1.25-1.1,2.67,2.67,0,0,1-.43-1.48A3,3,0,0,1,248,245a5,5,0,0,1,3.21-1,5.59,5.59,0,0,1,3.42,1,3,3,0,0,1,1.3,2.54h-3.37c0-.86-.45-1.29-1.36-1.29a1.38,1.38,0,0,0-.89.29.91.91,0,0,0-.36.73.84.84,0,0,0,.44.73,4.05,4.05,0,0,0,1.4.46,11.84,11.84,0,0,1,1.69.43,3.06,3.06,0,0,1,2.43,3,2.81,2.81,0,0,1-1.31,2.4,5.78,5.78,0,0,1-3.39.93,5.89,5.89,0,0,1-2.47-.5,4.12,4.12,0,0,1-1.69-1.36,3,3,0,0,1-.61-1.8h3.13a1.31,1.31,0,0,0,.5,1.09,2.06,2.06,0,0,0,1.23.34,1.58,1.58,0,0,0,1-.28A.88.88,0,0,0,252.68,252Z" transform="translate(-195.65 -213.41)" style="fill:#1a353d"/><path d="M261.4,241.54v2.68h1.77v2.33H261.4v4.93a1.3,1.3,0,0,0,.22.85,1.19,1.19,0,0,0,.87.24,5,5,0,0,0,.84-.06v2.4a6.34,6.34,0,0,1-1.9.29,3.5,3.5,0,0,1-2.56-.82,3.34,3.34,0,0,1-.83-2.48v-5.35h-1.37v-2.33H258v-2.68Z" transform="translate(-195.65 -213.41)" style="fill:#1a353d"/><path d="M264.47,241.44a1.52,1.52,0,0,1,.51-1.18,2,2,0,0,1,1.35-.46,2,2,0,0,1,1.34.46,1.6,1.6,0,0,1,0,2.35,2,2,0,0,1-1.35.46,1.91,1.91,0,0,1-1.34-.46A1.46,1.46,0,0,1,264.47,241.44ZM268,255h-3.37V244.22H268Z" transform="translate(-195.65 -213.41)" style="fill:#1a353d"/><path d="M274.41,251l1.69-6.79h3.54L276.13,255H272.7l-3.52-10.78h3.55Z" transform="translate(-195.65 -213.41)" style="fill:#1a353d"/><path d="M286.57,255a4,4,0,0,1-.32-1,3.11,3.11,0,0,1-2.59,1.17,3.85,3.85,0,0,1-2.59-.92A3,3,0,0,1,280,252a3,3,0,0,1,1.3-2.65,6.58,6.58,0,0,1,3.77-.9h1v-.57c0-1-.43-1.49-1.28-1.49a1.05,1.05,0,0,0-1.2,1.18h-3.36a3,3,0,0,1,1.33-2.53,5.6,5.6,0,0,1,3.39-1,4.89,4.89,0,0,1,3.26,1,3.49,3.49,0,0,1,1.23,2.76v4.78a4.88,4.88,0,0,0,.46,2.27V255Zm-2.1-2.19a1.85,1.85,0,0,0,1-.27,1.62,1.62,0,0,0,.59-.61V250.2h-1c-1.17,0-1.76.52-1.76,1.57a1,1,0,0,0,.31.74A1.13,1.13,0,0,0,284.47,252.8Z" transform="translate(-195.65 -213.41)" style="fill:#1a353d"/><path d="M294.87,255H291.5V239.68h3.36Z" transform="translate(-195.65 -213.41)" style="fill:#1a353d"/></g><path d="M292.78,234c-1,1.79-4.32,3.1-7.46,2.91a7.84,7.84,0,0,1-2.19-.45c-1.69-.64-2.44-1.86-1.71-3.19a5.93,5.93,0,0,1,3.36-2.37,8.52,8.52,0,0,1,1.23-.31,10.49,10.49,0,0,1,1.59-.22,11,11,0,0,1,1.28,0C292,230.53,293.77,232.15,292.78,234Z" transform="translate(-195.65 -213.41)" style="fill:#e38578"/><path d="M287.6,230.34c-.62,1-1.25,2.06-1.89,3.1-.37,1.1-.75,2.17-1.12,3.27l-.77-.06-1.37-.28c-1.24-.27-1.58-.39-3.41-.86-2.14-.55-3.16-.77-3.25-1.21a.35.35,0,0,1,0-.17c.17-.39,1-.8,4.76-2,1.56-.48,3-.89,4.2-1.26l1.24-.31A10.49,10.49,0,0,1,287.6,230.34Z" transform="translate(-195.65 -213.41)" style="fill:#e38578"/><path d="M286.31,228.51a2.6,2.6,0,0,1-1.93,1.51,2.49,2.49,0,0,1-.68.07c-.56,0-.89-.33-.79-.79a1.83,1.83,0,0,1,.77-1,2.33,2.33,0,0,1,.34-.2,3.1,3.1,0,0,1,.45-.21l.38-.11C285.78,227.56,286.44,227.89,286.31,228.51Z" transform="translate(-195.65 -213.41)" style="fill:#e38578"/><path d="M284.47,227.9c-.09.36-.19.72-.28,1.08s0,.7,0,1.06l-.24.05-.42,0c-.39,0-.5,0-1.08.05s-1,0-1.06-.07,0,0,0-.05.21-.33,1.22-1c.41-.29.79-.53,1.12-.75l.34-.2A4.68,4.68,0,0,1,284.47,227.9Z" transform="translate(-195.65 -213.41)" style="fill:#e38578"/><path d="M271.56,213.68c1.81,1,3.13,4.31,2.92,7.46a7.82,7.82,0,0,1-.46,2.19c-.66,1.7-1.91,2.46-3.26,1.74a5.92,5.92,0,0,1-2.39-3.35,8.65,8.65,0,0,1-.31-1.24,9.09,9.09,0,0,1-.22-1.59,10.93,10.93,0,0,1,0-1.28C268.05,214.47,269.72,212.7,271.56,213.68Z" transform="translate(-195.65 -213.41)" style="fill:#4cb07f"/><path d="M267.84,218.89l3.15,1.87,3.32,1.11c0,.26-.05.51-.07.77L274,224c-.29,1.25-.41,1.59-.89,3.43-.57,2.15-.8,3.17-1.25,3.26a.35.35,0,0,1-.17,0c-.4-.16-.82-1-2-4.76-.49-1.56-.9-3-1.26-4.2-.11-.43-.22-.84-.32-1.24A10.15,10.15,0,0,1,267.84,218.89Z" transform="translate(-195.65 -213.41)" style="fill:#4cb07f"/><path d="M275.82,224.68a1.34,1.34,0,0,1-.37,1.24,1.49,1.49,0,0,1-.28.24c-.25.15-.49.12-.59-.11a1,1,0,0,1,0-.67c0-.06.05-.12.09-.19a1.27,1.27,0,0,1,.13-.22,1.09,1.09,0,0,1,.13-.17C275.3,224.43,275.69,224.37,275.82,224.68Z" transform="translate(-195.65 -213.41)" style="fill:#4cb07f"/><path d="M274.83,225c.07.18.14.37.22.56l.31.47-.09.09-.17.15-.46.35c-.29.22-.42.32-.48.29a0,0,0,0,1,0,0c0-.06,0-.21.21-.81l.27-.67c0-.06.05-.12.08-.19A1.27,1.27,0,0,1,274.83,225Z" transform="translate(-195.65 -213.41)" style="fill:#4cb07f"/><path d="M288.57,219.92c.21,2.14-1.91,5.28-4.75,7a8.48,8.48,0,0,1-2.16.93c-1.85.46-3.23-.15-3.39-1.73a6.3,6.3,0,0,1,1.5-4.07,9.46,9.46,0,0,1,.89-1,9.73,9.73,0,0,1,1.25-1.14,10,10,0,0,1,1.1-.78C285.85,217.4,288.34,217.76,288.57,219.92Z" transform="translate(-195.65 -213.41)" style="fill:#f5e5a3"/><path d="M281.91,219.9c.08,1.27.14,2.53.21,3.81.33,1.18.65,2.34,1,3.51l-.71.4c-.32.15-.79.35-1.36.58-1.24.51-1.6.62-3.47,1.31-2.18.81-3.2,1.23-3.53.9a.23.23,0,0,1-.08-.16c-.1-.44.36-1.28,2.93-4.59,1.06-1.35,2-2.55,2.89-3.61l.89-1A10.45,10.45,0,0,1,281.91,219.9Z" transform="translate(-195.65 -213.41)" style="fill:#f5e5a3"/><path d="M291.08,221.47a2.08,2.08,0,0,1-.53,1.89,1.85,1.85,0,0,1-.41.36c-.38.24-.73.21-.88-.13a1.53,1.53,0,0,1,0-1,2.52,2.52,0,0,1,.12-.29,2.33,2.33,0,0,1,.2-.34,2.48,2.48,0,0,1,.19-.26C290.3,221.11,290.88,221,291.08,221.47Z" transform="translate(-195.65 -213.41)" style="fill:#f5e5a3"/><path d="M289.61,222c.11.27.21.55.32.83l.48.7-.13.14-.26.23c-.23.2-.31.25-.67.54s-.62.51-.72.46l0,0c-.05-.09,0-.31.31-1.23l.38-1,.12-.29A2.33,2.33,0,0,1,289.61,222Z" transform="translate(-195.65 -213.41)" style="fill:#f5e5a3"/></svg>